<svg width="1185" height="62" viewBox="0 0 1185 62" fill="none" xmlns="http://www.w3.org/2000/svg">
<path d="M18.0967 25.6631C10.6004 24.0242 8.18974 22.3298 8.18974 19.6909C8.18974 16.6631 11.5251 14.552 17.106 14.552C22.9841 14.552 25.1636 16.9131 25.3618 20.3854H32.6599C32.4287 15.6076 28.9613 11.2187 22.0595 9.80202V3.71869H12.1525V9.71869C5.74603 10.8854 0.594416 14.3854 0.594416 19.7465C0.594416 26.1631 6.90183 29.3576 16.1153 31.2187C24.3711 32.8854 26.0222 35.3298 26.0222 37.9131C26.0222 39.8298 24.4041 42.8854 17.106 42.8854C10.3032 42.8854 7.62835 40.3298 7.26509 37.052H0C0.396278 43.1354 5.81207 46.552 12.1525 47.6909V53.7187H22.0595V47.7465C28.499 46.7187 33.6176 43.5798 33.6176 37.8854C33.6176 29.9965 25.5929 27.302 18.0967 25.6631Z" fill="white"/>
<path d="M67.0225 24.8251H64.7607L56.1709 11.6766V24.8251H53.9092V7.76257H56.1709L64.7842 20.9696V7.76257H67.0225V24.8251ZM70.1045 18.368C70.1045 17.1259 70.3467 16.0087 70.8311 15.0165C71.3232 14.0243 72.0029 13.2587 72.8701 12.7196C73.7451 12.1805 74.7412 11.911 75.8584 11.911C77.585 11.911 78.9795 12.5087 80.042 13.704C81.1123 14.8993 81.6475 16.4891 81.6475 18.4735V18.6259C81.6475 19.8602 81.4092 20.9696 80.9326 21.954C80.4639 22.9305 79.7881 23.6923 78.9053 24.2391C78.0303 24.786 77.0225 25.0594 75.8818 25.0594C74.1631 25.0594 72.7686 24.4618 71.6982 23.2665C70.6357 22.0712 70.1045 20.4891 70.1045 18.5204V18.368ZM72.2842 18.6259C72.2842 20.0321 72.6084 21.161 73.2568 22.0126C73.9131 22.8641 74.7881 23.2899 75.8818 23.2899C76.9834 23.2899 77.8584 22.8602 78.5068 22.0009C79.1553 21.1337 79.4795 19.9227 79.4795 18.368C79.4795 16.9774 79.1475 15.8524 78.4834 14.993C77.8271 14.1259 76.9521 13.6923 75.8584 13.6923C74.7881 13.6923 73.9248 14.118 73.2686 14.9696C72.6123 15.8212 72.2842 17.0399 72.2842 18.6259ZM103.772 24.8251H101.511V16.9384H92.9092V24.8251H90.6592V7.76257H92.9092V15.0985H101.511V7.76257H103.772V24.8251ZM109.784 24.8251H107.616V12.1454H109.784V24.8251ZM107.44 8.7821C107.44 8.43054 107.546 8.13367 107.757 7.89148C107.976 7.64929 108.296 7.5282 108.718 7.5282C109.14 7.5282 109.46 7.64929 109.679 7.89148C109.897 8.13367 110.007 8.43054 110.007 8.7821C110.007 9.13367 109.897 9.42664 109.679 9.66101C109.46 9.89539 109.14 10.0126 108.718 10.0126C108.296 10.0126 107.976 9.89539 107.757 9.66101C107.546 9.42664 107.44 9.13367 107.44 8.7821ZM112.737 18.3798C112.737 16.4344 113.198 14.8719 114.12 13.6923C115.042 12.5048 116.249 11.911 117.741 11.911C119.226 11.911 120.401 12.4188 121.269 13.4344V6.82507H123.437V24.8251H121.444L121.339 23.4657C120.472 24.5282 119.265 25.0594 117.718 25.0594C116.249 25.0594 115.05 24.4579 114.12 23.2548C113.198 22.0516 112.737 20.4813 112.737 18.5438V18.3798ZM114.905 18.6259C114.905 20.0634 115.202 21.1884 115.796 22.0009C116.39 22.8134 117.21 23.2196 118.257 23.2196C119.632 23.2196 120.636 22.6024 121.269 21.368V15.5438C120.62 14.3485 119.624 13.7509 118.28 13.7509C117.218 13.7509 116.39 14.161 115.796 14.9813C115.202 15.8016 114.905 17.0165 114.905 18.6259ZM126.284 18.3798C126.284 16.4344 126.745 14.8719 127.667 13.6923C128.589 12.5048 129.796 11.911 131.288 11.911C132.772 11.911 133.948 12.4188 134.815 13.4344V6.82507H136.983V24.8251H134.991L134.886 23.4657C134.019 24.5282 132.812 25.0594 131.265 25.0594C129.796 25.0594 128.597 24.4579 127.667 23.2548C126.745 22.0516 126.284 20.4813 126.284 18.5438V18.3798ZM128.452 18.6259C128.452 20.0634 128.749 21.1884 129.343 22.0009C129.937 22.8134 130.757 23.2196 131.804 23.2196C133.179 23.2196 134.183 22.6024 134.815 21.368V15.5438C134.167 14.3485 133.171 13.7509 131.827 13.7509C130.765 13.7509 129.937 14.161 129.343 14.9813C128.749 15.8016 128.452 17.0165 128.452 18.6259ZM145.62 25.0594C143.901 25.0594 142.503 24.4969 141.425 23.3719C140.347 22.2391 139.808 20.7274 139.808 18.8368V18.4384C139.808 17.1805 140.046 16.0594 140.522 15.0751C141.007 14.0829 141.679 13.3094 142.538 12.7548C143.405 12.1923 144.343 11.911 145.351 11.911C146.999 11.911 148.28 12.454 149.194 13.5399C150.108 14.6259 150.565 16.1805 150.565 18.204V19.1063H141.976C142.007 20.3563 142.37 21.368 143.065 22.1415C143.769 22.9071 144.659 23.2899 145.737 23.2899C146.503 23.2899 147.151 23.1337 147.683 22.8212C148.214 22.5087 148.679 22.0946 149.077 21.579L150.401 22.6102C149.339 24.243 147.745 25.0594 145.62 25.0594ZM145.351 13.6923C144.476 13.6923 143.741 14.0126 143.147 14.6532C142.554 15.286 142.187 16.1766 142.046 17.3251H148.397V17.161C148.335 16.0594 148.038 15.2079 147.507 14.6063C146.976 13.9969 146.257 13.6923 145.351 13.6923ZM155.136 12.1454L155.206 13.7391C156.175 12.5204 157.44 11.911 159.003 11.911C161.683 11.911 163.034 13.4227 163.058 16.4462V24.8251H160.89V16.4344C160.882 15.5204 160.671 14.8446 160.257 14.4071C159.851 13.9696 159.214 13.7509 158.347 13.7509C157.644 13.7509 157.026 13.9384 156.495 14.3134C155.964 14.6884 155.55 15.1805 155.253 15.7899V24.8251H153.085V12.1454H155.136ZM66.46 47.411C66.249 49.2157 65.5811 50.6102 64.4561 51.5946C63.3389 52.5712 61.8506 53.0594 59.9912 53.0594C57.9756 53.0594 56.3584 52.3368 55.1396 50.8915C53.9287 49.4462 53.3232 47.5126 53.3232 45.0907V43.4501C53.3232 41.8641 53.6045 40.4696 54.167 39.2665C54.7373 38.0634 55.542 37.1415 56.5811 36.5009C57.6201 35.8524 58.8232 35.5282 60.1904 35.5282C62.0029 35.5282 63.4561 36.036 64.5498 37.0516C65.6436 38.0594 66.2803 39.4579 66.46 41.2469H64.1982C64.0029 39.8876 63.5771 38.9032 62.9209 38.2938C62.2725 37.6844 61.3623 37.3798 60.1904 37.3798C58.7529 37.3798 57.624 37.911 56.8037 38.9735C55.9912 40.036 55.585 41.5477 55.585 43.5087V45.161C55.585 47.0126 55.9717 48.4852 56.7451 49.579C57.5186 50.6727 58.6006 51.2196 59.9912 51.2196C61.2412 51.2196 62.1982 50.9384 62.8623 50.3759C63.5342 49.8055 63.9795 48.8173 64.1982 47.411H66.46ZM71.3701 41.6805C72.3311 40.5009 73.5811 39.911 75.1201 39.911C77.7998 39.911 79.1514 41.4227 79.1748 44.4462V52.8251H77.0068V44.4344C76.999 43.5204 76.7881 42.8446 76.374 42.4071C75.9678 41.9696 75.3311 41.7509 74.4639 41.7509C73.7607 41.7509 73.1436 41.9384 72.6123 42.3134C72.0811 42.6884 71.667 43.1805 71.3701 43.7899V52.8251H69.2021V34.8251H71.3701V41.6805ZM90.249 52.8251C90.124 52.5751 90.0225 52.1298 89.9443 51.4891C88.9365 52.536 87.7334 53.0594 86.335 53.0594C85.085 53.0594 84.0576 52.7079 83.2529 52.0048C82.4561 51.2938 82.0576 50.3954 82.0576 49.3094C82.0576 47.9891 82.5576 46.9657 83.5576 46.2391C84.5654 45.5048 85.9795 45.1376 87.7998 45.1376H89.9092V44.1415C89.9092 43.3837 89.6826 42.7821 89.2295 42.3368C88.7764 41.8837 88.1084 41.6571 87.2256 41.6571C86.4521 41.6571 85.8037 41.8524 85.2803 42.243C84.7568 42.6337 84.4951 43.1063 84.4951 43.661H82.3154C82.3154 43.0282 82.5381 42.4188 82.9834 41.8329C83.4365 41.2391 84.0459 40.7704 84.8115 40.4266C85.585 40.0829 86.4326 39.911 87.3545 39.911C88.8154 39.911 89.96 40.2782 90.7881 41.0126C91.6162 41.7391 92.0459 42.743 92.0771 44.0243V49.8602C92.0771 51.0243 92.2256 51.9501 92.5225 52.6376V52.8251H90.249ZM86.6514 51.1727C87.3311 51.1727 87.9756 50.9969 88.585 50.6454C89.1943 50.2938 89.6357 49.8368 89.9092 49.2743V46.6727H88.21C85.5537 46.6727 84.2256 47.4501 84.2256 49.0048C84.2256 49.6844 84.4521 50.2157 84.9053 50.5985C85.3584 50.9813 85.9404 51.1727 86.6514 51.1727ZM101.604 42.0907C101.276 42.036 100.921 42.0087 100.538 42.0087C99.1162 42.0087 98.1514 42.6141 97.6436 43.8251V52.8251H95.4756V40.1454H97.585L97.6201 41.6102C98.3311 40.4774 99.3389 39.911 100.644 39.911C101.065 39.911 101.386 39.9657 101.604 40.0751V42.0907ZM102.858 46.3798C102.858 44.4032 103.315 42.8329 104.229 41.6688C105.144 40.4969 106.354 39.911 107.862 39.911C109.409 39.911 110.616 40.4579 111.483 41.5516L111.589 40.1454H113.569V52.5204C113.569 54.161 113.081 55.454 112.104 56.3993C111.136 57.3446 109.831 57.8173 108.19 57.8173C107.276 57.8173 106.382 57.6219 105.507 57.2313C104.632 56.8407 103.964 56.3055 103.503 55.6259L104.628 54.3251C105.558 55.4735 106.694 56.0477 108.038 56.0477C109.093 56.0477 109.913 55.7509 110.499 55.1571C111.093 54.5634 111.39 53.7274 111.39 52.6493V51.5594C110.522 52.5594 109.339 53.0594 107.839 53.0594C106.354 53.0594 105.151 52.4618 104.229 51.2665C103.315 50.0712 102.858 48.4423 102.858 46.3798ZM105.038 46.6259C105.038 48.0555 105.331 49.1805 105.917 50.0009C106.503 50.8134 107.323 51.2196 108.378 51.2196C109.745 51.2196 110.749 50.5985 111.39 49.3563V43.5673C110.726 42.3563 109.729 41.7509 108.401 41.7509C107.347 41.7509 106.522 42.161 105.929 42.9813C105.335 43.8016 105.038 45.0165 105.038 46.6259ZM122.112 53.0594C120.394 53.0594 118.995 52.4969 117.917 51.3719C116.839 50.2391 116.3 48.7274 116.3 46.8368V46.4384C116.3 45.1805 116.538 44.0594 117.015 43.0751C117.499 42.0829 118.171 41.3094 119.03 40.7548C119.897 40.1923 120.835 39.911 121.843 39.911C123.491 39.911 124.772 40.454 125.687 41.5399C126.601 42.6259 127.058 44.1805 127.058 46.204V47.1063H118.468C118.499 48.3563 118.862 49.368 119.558 50.1415C120.261 50.9071 121.151 51.2899 122.229 51.2899C122.995 51.2899 123.644 51.1337 124.175 50.8212C124.706 50.5087 125.171 50.0946 125.569 49.579L126.894 50.6102C125.831 52.243 124.237 53.0594 122.112 53.0594ZM121.843 41.6923C120.968 41.6923 120.233 42.0126 119.64 42.6532C119.046 43.286 118.679 44.1766 118.538 45.3251H124.89V45.161C124.827 44.0594 124.53 43.2079 123.999 42.6063C123.468 41.9969 122.749 41.6923 121.843 41.6923ZM136.96 49.4618C136.96 48.8759 136.737 48.4227 136.292 48.1024C135.854 47.7743 135.085 47.493 133.983 47.2587C132.89 47.0243 132.019 46.743 131.37 46.4149C130.729 46.0868 130.253 45.6962 129.94 45.243C129.636 44.7899 129.483 44.2509 129.483 43.6259C129.483 42.5868 129.921 41.7079 130.796 40.9891C131.679 40.2704 132.804 39.911 134.171 39.911C135.608 39.911 136.772 40.2821 137.663 41.0243C138.562 41.7665 139.011 42.7157 139.011 43.8719H136.831C136.831 43.2782 136.577 42.7665 136.069 42.3368C135.569 41.9071 134.937 41.6923 134.171 41.6923C133.382 41.6923 132.765 41.8641 132.319 42.2079C131.874 42.5516 131.651 43.0009 131.651 43.5555C131.651 44.079 131.858 44.4735 132.272 44.7391C132.687 45.0048 133.433 45.2587 134.511 45.5009C135.597 45.743 136.476 46.0321 137.147 46.368C137.819 46.704 138.315 47.1102 138.636 47.5868C138.964 48.0555 139.128 48.6298 139.128 49.3094C139.128 50.4423 138.675 51.3524 137.769 52.0399C136.862 52.7196 135.687 53.0594 134.241 53.0594C133.226 53.0594 132.327 52.8798 131.546 52.5204C130.765 52.161 130.151 51.661 129.706 51.0204C129.269 50.3719 129.05 49.6727 129.05 48.9227H131.218C131.257 49.6493 131.546 50.2274 132.085 50.6571C132.632 51.079 133.351 51.2899 134.241 51.2899C135.062 51.2899 135.718 51.1259 136.21 50.7977C136.71 50.4618 136.96 50.0165 136.96 49.4618Z" fill="white"/>
<path d="M1035.06 28.7187H1023.88V27.1601L1029.79 20.5976C1030.67 19.6054 1031.27 18.8007 1031.6 18.1835C1031.93 17.5585 1032.1 16.914 1032.1 16.2499C1032.1 15.3593 1031.83 14.6288 1031.29 14.0585C1030.75 13.4882 1030.03 13.2031 1029.13 13.2031C1028.06 13.2031 1027.22 13.5117 1026.61 14.1288C1026.02 14.7382 1025.72 15.5898 1025.72 16.6835H1023.56C1023.56 15.1132 1024.06 13.8437 1025.07 12.8749C1026.08 11.9062 1027.44 11.4218 1029.13 11.4218C1030.72 11.4218 1031.97 11.8398 1032.9 12.6757C1033.82 13.5038 1034.28 14.6093 1034.28 15.9921C1034.28 17.6718 1033.21 19.6718 1031.07 21.9921L1026.5 26.9492H1035.06V28.7187ZM1046.51 22.9882H1048.88V24.7578H1046.51V28.7187H1044.33V24.7578H1036.56V23.4804L1044.2 11.6562H1046.51V22.9882ZM1039.03 22.9882H1044.33V14.621L1044.08 15.0898L1039.03 22.9882ZM1051.49 30.1835H1049.63L1056.76 11.6562H1058.61L1051.49 30.1835ZM1071.74 12.8749L1064.68 28.7187H1062.4L1069.45 13.4374H1060.21V11.6562H1071.74V12.8749ZM1093.27 23.3046C1093.06 25.1093 1092.39 26.5038 1091.27 27.4882C1090.15 28.4648 1088.66 28.9531 1086.8 28.9531C1084.79 28.9531 1083.17 28.2304 1081.95 26.7851C1080.74 25.3398 1080.13 23.4062 1080.13 20.9843V19.3437C1080.13 17.7578 1080.42 16.3632 1080.98 15.1601C1081.55 13.957 1082.35 13.0351 1083.39 12.3945C1084.43 11.746 1085.63 11.4218 1087 11.4218C1088.81 11.4218 1090.27 11.9296 1091.36 12.9453C1092.45 13.9531 1093.09 15.3515 1093.27 17.1406H1091.01C1090.81 15.7812 1090.39 14.7968 1089.73 14.1874C1089.08 13.5781 1088.17 13.2734 1087 13.2734C1085.56 13.2734 1084.44 13.8046 1083.61 14.8671C1082.8 15.9296 1082.4 17.4413 1082.4 19.4023V21.0546C1082.4 22.9062 1082.78 24.3788 1083.56 25.4726C1084.33 26.5663 1085.41 27.1132 1086.8 27.1132C1088.05 27.1132 1089.01 26.832 1089.67 26.2695C1090.35 25.6992 1090.79 24.7109 1091.01 23.3046H1093.27ZM1103.84 27.4648C1103 28.457 1101.76 28.9531 1100.13 28.9531C1098.78 28.9531 1097.74 28.5624 1097.03 27.7812C1096.33 26.9921 1095.97 25.8281 1095.97 24.289V16.039H1098.13V24.2304C1098.13 26.1523 1098.92 27.1132 1100.48 27.1132C1102.13 27.1132 1103.24 26.496 1103.78 25.2617V16.039H1105.95V28.7187H1103.89L1103.84 27.4648ZM1116.64 25.3554C1116.64 24.7695 1116.42 24.3163 1115.97 23.996C1115.53 23.6679 1114.76 23.3867 1113.66 23.1523C1112.57 22.9179 1111.7 22.6367 1111.05 22.3085C1110.41 21.9804 1109.93 21.5898 1109.62 21.1367C1109.31 20.6835 1109.16 20.1445 1109.16 19.5195C1109.16 18.4804 1109.6 17.6015 1110.47 16.8828C1111.36 16.164 1112.48 15.8046 1113.85 15.8046C1115.29 15.8046 1116.45 16.1757 1117.34 16.9179C1118.24 17.6601 1118.69 18.6093 1118.69 19.7656H1116.51C1116.51 19.1718 1116.26 18.6601 1115.75 18.2304C1115.25 17.8007 1114.61 17.5859 1113.85 17.5859C1113.06 17.5859 1112.44 17.7578 1112 18.1015C1111.55 18.4453 1111.33 18.8945 1111.33 19.4492C1111.33 19.9726 1111.54 20.3671 1111.95 20.6328C1112.36 20.8984 1113.11 21.1523 1114.19 21.3945C1115.28 21.6367 1116.15 21.9257 1116.83 22.2617C1117.5 22.5976 1117.99 23.0038 1118.31 23.4804C1118.64 23.9492 1118.81 24.5234 1118.81 25.2031C1118.81 26.3359 1118.35 27.246 1117.45 27.9335C1116.54 28.6132 1115.36 28.9531 1113.92 28.9531C1112.9 28.9531 1112.01 28.7734 1111.22 28.414C1110.44 28.0546 1109.83 27.5546 1109.38 26.914C1108.95 26.2656 1108.73 25.5663 1108.73 24.8163H1110.9C1110.94 25.5429 1111.22 26.121 1111.76 26.5507C1112.31 26.9726 1113.03 27.1835 1113.92 27.1835C1114.74 27.1835 1115.4 27.0195 1115.89 26.6913C1116.39 26.3554 1116.64 25.9101 1116.64 25.3554ZM1124.57 12.9687V16.039H1126.94V17.7148H1124.57V25.5781C1124.57 26.0859 1124.68 26.4687 1124.89 26.7265C1125.1 26.9765 1125.46 27.1015 1125.97 27.1015C1126.22 27.1015 1126.56 27.0546 1127 26.9609V28.7187C1126.43 28.8749 1125.87 28.9531 1125.33 28.9531C1124.36 28.9531 1123.63 28.6601 1123.14 28.0742C1122.65 27.4882 1122.4 26.6562 1122.4 25.5781V17.7148H1120.1V16.039H1122.4V12.9687H1124.57ZM1128.67 22.2617C1128.67 21.0195 1128.92 19.9023 1129.4 18.9101C1129.89 17.9179 1130.57 17.1523 1131.44 16.6132C1132.31 16.0742 1133.31 15.8046 1134.43 15.8046C1136.15 15.8046 1137.55 16.4023 1138.61 17.5976C1139.68 18.7929 1140.22 20.3828 1140.22 22.3671V22.5195C1140.22 23.7538 1139.98 24.8632 1139.5 25.8476C1139.03 26.8242 1138.36 27.5859 1137.47 28.1328C1136.6 28.6796 1135.59 28.9531 1134.45 28.9531C1132.73 28.9531 1131.34 28.3554 1130.27 27.1601C1129.2 25.9648 1128.67 24.3828 1128.67 22.414V22.2617ZM1130.85 22.5195C1130.85 23.9257 1131.18 25.0546 1131.83 25.9062C1132.48 26.7578 1133.36 27.1835 1134.45 27.1835C1135.55 27.1835 1136.43 26.7538 1137.08 25.8945C1137.72 25.0273 1138.05 23.8163 1138.05 22.2617C1138.05 20.871 1137.72 19.746 1137.05 18.8867C1136.4 18.0195 1135.52 17.5859 1134.43 17.5859C1133.36 17.5859 1132.49 18.0117 1131.84 18.8632C1131.18 19.7148 1130.85 20.9335 1130.85 22.5195ZM1144.97 16.039L1145.03 17.4453C1145.96 16.3515 1147.22 15.8046 1148.79 15.8046C1150.57 15.8046 1151.78 16.4843 1152.42 17.8437C1152.84 17.2343 1153.38 16.7421 1154.06 16.3671C1154.74 15.9921 1155.54 15.8046 1156.46 15.8046C1159.24 15.8046 1160.65 17.2773 1160.7 20.2226V28.7187H1158.53V20.3515C1158.53 19.4453 1158.33 18.7695 1157.91 18.3242C1157.5 17.871 1156.8 17.6445 1155.83 17.6445C1155.02 17.6445 1154.35 17.8867 1153.82 18.371C1153.29 18.8476 1152.98 19.4921 1152.9 20.3046V28.7187H1150.72V20.4101C1150.72 18.5663 1149.81 17.6445 1148.01 17.6445C1146.59 17.6445 1145.61 18.2499 1145.09 19.4609V28.7187H1142.92V16.039H1144.97ZM1169.24 28.9531C1167.53 28.9531 1166.13 28.3906 1165.05 27.2656C1163.97 26.1328 1163.43 24.621 1163.43 22.7304V22.332C1163.43 21.0742 1163.67 19.9531 1164.15 18.9687C1164.63 17.9765 1165.3 17.2031 1166.16 16.6484C1167.03 16.0859 1167.97 15.8046 1168.97 15.8046C1170.62 15.8046 1171.9 16.3476 1172.82 17.4335C1173.73 18.5195 1174.19 20.0742 1174.19 22.0976V22.9999H1165.6C1165.63 24.2499 1165.99 25.2617 1166.69 26.0351C1167.39 26.8007 1168.28 27.1835 1169.36 27.1835C1170.13 27.1835 1170.78 27.0273 1171.31 26.7148C1171.84 26.4023 1172.3 25.9882 1172.7 25.4726L1174.03 26.5038C1172.96 28.1367 1171.37 28.9531 1169.24 28.9531ZM1168.97 17.5859C1168.1 17.5859 1167.36 17.9062 1166.77 18.5468C1166.18 19.1796 1165.81 20.0703 1165.67 21.2187H1172.02V21.0546C1171.96 19.9531 1171.66 19.1015 1171.13 18.4999C1170.6 17.8906 1169.88 17.5859 1168.97 17.5859ZM1182.84 17.9843C1182.51 17.9296 1182.15 17.9023 1181.77 17.9023C1180.35 17.9023 1179.38 18.5078 1178.88 19.7187V28.7187H1176.71V16.039H1178.82L1178.85 17.5038C1179.56 16.371 1180.57 15.8046 1181.88 15.8046C1182.3 15.8046 1182.62 15.8593 1182.84 15.9687V17.9843ZM1029.47 49.1132C1027.54 48.5585 1026.14 47.8788 1025.26 47.0742C1024.38 46.2617 1023.94 45.2617 1023.94 44.0742C1023.94 42.7304 1024.48 41.621 1025.55 40.746C1026.63 39.8632 1028.03 39.4218 1029.74 39.4218C1030.92 39.4218 1031.96 39.6484 1032.87 40.1015C1033.79 40.5546 1034.51 41.1796 1035.01 41.9765C1035.51 42.7734 1035.77 43.6445 1035.77 44.5898H1033.51C1033.51 43.5585 1033.18 42.7499 1032.52 42.164C1031.86 41.5703 1030.94 41.2734 1029.74 41.2734C1028.63 41.2734 1027.77 41.5195 1027.14 42.0117C1026.53 42.496 1026.22 43.1718 1026.22 44.039C1026.22 44.7343 1026.51 45.3242 1027.1 45.8085C1027.69 46.2851 1028.69 46.7226 1030.11 47.121C1031.53 47.5195 1032.64 47.9609 1033.44 48.4453C1034.24 48.9218 1034.83 49.4804 1035.22 50.121C1035.61 50.7617 1035.8 51.5156 1035.8 52.3828C1035.8 53.7656 1035.26 54.8749 1034.19 55.7109C1033.11 56.539 1031.67 56.9531 1029.86 56.9531C1028.69 56.9531 1027.6 56.7304 1026.58 56.2851C1025.56 55.832 1024.78 55.2148 1024.22 54.4335C1023.68 53.6523 1023.4 52.7656 1023.4 51.7734H1025.67C1025.67 52.8046 1026.04 53.621 1026.8 54.2226C1027.57 54.8163 1028.59 55.1132 1029.86 55.1132C1031.05 55.1132 1031.96 54.871 1032.59 54.3867C1033.22 53.9023 1033.54 53.2421 1033.54 52.4062C1033.54 51.5703 1033.25 50.9257 1032.66 50.4726C1032.08 50.0117 1031.01 49.5585 1029.47 49.1132ZM1046.19 55.4648C1045.34 56.457 1044.1 56.9531 1042.47 56.9531C1041.12 56.9531 1040.09 56.5624 1039.38 55.7812C1038.67 54.9921 1038.32 53.8281 1038.31 52.289V44.039H1040.48V52.2304C1040.48 54.1523 1041.26 55.1132 1042.82 55.1132C1044.48 55.1132 1045.58 54.496 1046.13 53.2617V44.039H1048.29V56.7187H1046.23L1046.19 55.4648ZM1062.31 50.5195C1062.31 52.4492 1061.87 54.0038 1060.99 55.1835C1060.1 56.3632 1058.91 56.9531 1057.4 56.9531C1055.86 56.9531 1054.65 56.4648 1053.77 55.4882V61.5937H1051.6V44.039H1053.58L1053.69 45.4453C1054.57 44.3515 1055.79 43.8046 1057.36 43.8046C1058.89 43.8046 1060.09 44.3788 1060.97 45.5273C1061.86 46.6757 1062.31 48.2734 1062.31 50.3203V50.5195ZM1060.14 50.2734C1060.14 48.8437 1059.84 47.7148 1059.23 46.8867C1058.62 46.0585 1057.78 45.6445 1056.72 45.6445C1055.41 45.6445 1054.42 46.2265 1053.77 47.3906V53.4492C1054.42 54.6054 1055.41 55.1835 1056.74 55.1835C1057.78 55.1835 1058.61 54.7734 1059.22 53.9531C1059.83 53.1249 1060.14 51.8984 1060.14 50.2734ZM1075.79 50.5195C1075.79 52.4492 1075.35 54.0038 1074.46 55.1835C1073.58 56.3632 1072.38 56.9531 1070.88 56.9531C1069.34 56.9531 1068.13 56.4648 1067.24 55.4882V61.5937H1065.08V44.039H1067.06L1067.16 45.4453C1068.04 44.3515 1069.27 43.8046 1070.84 43.8046C1072.36 43.8046 1073.57 44.3788 1074.45 45.5273C1075.34 46.6757 1075.79 48.2734 1075.79 50.3203V50.5195ZM1073.62 50.2734C1073.62 48.8437 1073.31 47.7148 1072.7 46.8867C1072.1 46.0585 1071.26 45.6445 1070.2 45.6445C1068.88 45.6445 1067.9 46.2265 1067.24 47.3906V53.4492C1067.89 54.6054 1068.88 55.1835 1070.22 55.1835C1071.26 55.1835 1072.08 54.7734 1072.69 53.9531C1073.31 53.1249 1073.62 51.8984 1073.62 50.2734ZM1077.98 50.2617C1077.98 49.0195 1078.22 47.9023 1078.7 46.9101C1079.2 45.9179 1079.88 45.1523 1080.74 44.6132C1081.62 44.0742 1082.61 43.8046 1083.73 43.8046C1085.46 43.8046 1086.85 44.4023 1087.92 45.5976C1088.99 46.7929 1089.52 48.3828 1089.52 50.3671V50.5195C1089.52 51.7538 1089.28 52.8632 1088.81 53.8476C1088.34 54.8242 1087.66 55.5859 1086.78 56.1328C1085.9 56.6796 1084.9 56.9531 1083.76 56.9531C1082.04 56.9531 1080.64 56.3554 1079.57 55.1601C1078.51 53.9648 1077.98 52.3828 1077.98 50.414V50.2617ZM1080.16 50.5195C1080.16 51.9257 1080.48 53.0546 1081.13 53.9062C1081.79 54.7578 1082.66 55.1835 1083.76 55.1835C1084.86 55.1835 1085.73 54.7538 1086.38 53.8945C1087.03 53.0273 1087.35 51.8163 1087.35 50.2617C1087.35 48.871 1087.02 47.746 1086.36 46.8867C1085.7 46.0195 1084.83 45.5859 1083.73 45.5859C1082.66 45.5859 1081.8 46.0117 1081.14 46.8632C1080.49 47.7148 1080.16 48.9335 1080.16 50.5195ZM1098.37 45.9843C1098.04 45.9296 1097.69 45.9023 1097.3 45.9023C1095.88 45.9023 1094.92 46.5078 1094.41 47.7187V56.7187H1092.24V44.039H1094.35L1094.38 45.5038C1095.1 44.371 1096.1 43.8046 1097.41 43.8046C1097.83 43.8046 1098.15 43.8593 1098.37 43.9687V45.9843ZM1103.9 40.9687V44.039H1106.27V45.7148H1103.9V53.5781C1103.9 54.0859 1104.01 54.4687 1104.22 54.7265C1104.43 54.9765 1104.79 55.1015 1105.29 55.1015C1105.54 55.1015 1105.89 55.0546 1106.33 54.9609V56.7187C1105.76 56.8749 1105.2 56.9531 1104.66 56.9531C1103.69 56.9531 1102.96 56.6601 1102.47 56.0742C1101.98 55.4882 1101.73 54.6562 1101.73 53.5781V45.7148H1099.42V44.039H1101.73V40.9687H1103.9Z" fill="white"/>
<path d="M698.316 17.6014H699.945C700.968 17.5858 701.773 17.3163 702.359 16.7928C702.945 16.2694 703.238 15.5624 703.238 14.6718C703.238 12.6718 702.242 11.6718 700.25 11.6718C699.312 11.6718 698.562 11.9413 698 12.4803C697.445 13.0116 697.168 13.7186 697.168 14.6014H695C695 13.2499 695.492 12.1288 696.476 11.2382C697.468 10.3397 698.726 9.8905 700.25 9.8905C701.859 9.8905 703.121 10.3163 704.035 11.1678C704.949 12.0194 705.406 13.203 705.406 14.7186C705.406 15.4608 705.164 16.1796 704.679 16.8749C704.203 17.5702 703.55 18.0897 702.722 18.4335C703.66 18.7303 704.383 19.2225 704.89 19.91C705.406 20.5975 705.664 21.4374 705.664 22.4296C705.664 23.9608 705.164 25.1757 704.164 26.0741C703.164 26.9725 701.863 27.4218 700.261 27.4218C698.66 27.4218 697.355 26.9882 696.347 26.121C695.347 25.2538 694.847 24.1093 694.847 22.6874H697.027C697.027 23.5858 697.32 24.3046 697.906 24.8436C698.492 25.3827 699.277 25.6522 700.261 25.6522C701.308 25.6522 702.109 25.3788 702.664 24.8319C703.218 24.285 703.496 23.4999 703.496 22.4764C703.496 21.4843 703.191 20.7225 702.582 20.1913C701.972 19.66 701.093 19.3866 699.945 19.371H698.316V17.6014ZM719.34 19.91C719.34 22.4491 718.906 24.3358 718.039 25.5702C717.172 26.8046 715.816 27.4218 713.972 27.4218C712.152 27.4218 710.804 26.8202 709.929 25.6171C709.054 24.4061 708.601 22.6014 708.57 20.203V17.3085C708.57 14.8007 709.004 12.9374 709.871 11.7186C710.738 10.4999 712.097 9.8905 713.949 9.8905C715.785 9.8905 717.136 10.4803 718.004 11.66C718.871 12.8319 719.316 14.6444 719.34 17.0975V19.91ZM717.172 16.9452C717.172 15.1093 716.914 13.7733 716.398 12.9374C715.883 12.0936 715.066 11.6718 713.949 11.6718C712.84 11.6718 712.031 12.0897 711.523 12.9257C711.015 13.7616 710.754 15.0468 710.738 16.7811V20.2499C710.738 22.0936 711.004 23.4569 711.535 24.3397C712.074 25.2147 712.886 25.6522 713.972 25.6522C715.043 25.6522 715.836 25.2382 716.351 24.41C716.875 23.5819 717.148 22.2772 717.172 20.496V16.9452ZM727.765 20.7421C727.765 18.7968 728.226 17.2343 729.148 16.0546C730.07 14.8671 731.277 14.2733 732.769 14.2733C734.254 14.2733 735.429 14.7811 736.297 15.7968V9.18738H738.465V27.1874H736.472L736.367 25.828C735.5 26.8905 734.293 27.4218 732.746 27.4218C731.277 27.4218 730.078 26.8202 729.148 25.6171C728.226 24.4139 727.765 22.8436 727.765 20.9061V20.7421ZM729.933 20.9882C729.933 22.4257 730.23 23.5507 730.824 24.3632C731.418 25.1757 732.238 25.5819 733.285 25.5819C734.66 25.5819 735.664 24.9647 736.297 23.7303V17.9061C735.648 16.7108 734.652 16.1132 733.308 16.1132C732.246 16.1132 731.418 16.5233 730.824 17.3436C730.23 18.1639 729.933 19.3788 729.933 20.9882ZM749.668 27.1874C749.543 26.9374 749.441 26.4921 749.363 25.8514C748.355 26.8983 747.152 27.4218 745.754 27.4218C744.504 27.4218 743.476 27.0702 742.672 26.3671C741.875 25.6561 741.476 24.7577 741.476 23.6718C741.476 22.3514 741.976 21.328 742.976 20.6014C743.984 19.8671 745.398 19.4999 747.218 19.4999H749.328V18.5038C749.328 17.746 749.101 17.1444 748.648 16.6991C748.195 16.246 747.527 16.0194 746.644 16.0194C745.871 16.0194 745.222 16.2147 744.699 16.6053C744.175 16.996 743.914 17.4686 743.914 18.0233H741.734C741.734 17.3905 741.957 16.7811 742.402 16.1952C742.855 15.6014 743.465 15.1327 744.23 14.7889C745.004 14.4452 745.851 14.2733 746.773 14.2733C748.234 14.2733 749.379 14.6405 750.207 15.3749C751.035 16.1014 751.465 17.1053 751.496 18.3866V24.2225C751.496 25.3866 751.644 26.3124 751.941 26.9999V27.1874H749.668ZM746.07 25.535C746.75 25.535 747.394 25.3593 748.004 25.0077C748.613 24.6561 749.054 24.1991 749.328 23.6366V21.035H747.629C744.972 21.035 743.644 21.8124 743.644 23.3671C743.644 24.0468 743.871 24.578 744.324 24.9608C744.777 25.3436 745.359 25.535 746.07 25.535ZM758.855 24.0116L761.808 14.5077H764.129L759.031 29.1444C758.242 31.2538 756.988 32.3085 755.269 32.3085L754.859 32.2733L754.05 32.121V30.3632L754.636 30.41C755.371 30.41 755.941 30.2616 756.347 29.9647C756.761 29.6678 757.101 29.1249 757.367 28.3358L757.847 27.0468L753.324 14.5077H755.691L758.855 24.0116ZM773.457 23.8241C773.457 23.2382 773.234 22.785 772.789 22.4647C772.351 22.1366 771.582 21.8553 770.48 21.621C769.386 21.3866 768.515 21.1053 767.867 20.7772C767.226 20.4491 766.75 20.0585 766.437 19.6053C766.133 19.1522 765.98 18.6132 765.98 17.9882C765.98 16.9491 766.418 16.0702 767.293 15.3514C768.175 14.6327 769.3 14.2733 770.668 14.2733C772.105 14.2733 773.269 14.6444 774.16 15.3866C775.058 16.1288 775.508 17.078 775.508 18.2343H773.328C773.328 17.6405 773.074 17.1288 772.566 16.6991C772.066 16.2694 771.433 16.0546 770.668 16.0546C769.879 16.0546 769.261 16.2264 768.816 16.5702C768.371 16.9139 768.148 17.3632 768.148 17.9178C768.148 18.4413 768.355 18.8358 768.769 19.1014C769.183 19.3671 769.929 19.621 771.008 19.8632C772.093 20.1053 772.972 20.3944 773.644 20.7303C774.316 21.0663 774.812 21.4725 775.133 21.9491C775.461 22.4178 775.625 22.9921 775.625 23.6718C775.625 24.8046 775.172 25.7147 774.265 26.4022C773.359 27.0819 772.183 27.4218 770.738 27.4218C769.722 27.4218 768.824 27.2421 768.043 26.8827C767.261 26.5233 766.648 26.0233 766.203 25.3827C765.765 24.7343 765.547 24.035 765.547 23.285H767.715C767.754 24.0116 768.043 24.5897 768.582 25.0194C769.129 25.4413 769.847 25.6522 770.738 25.6522C771.558 25.6522 772.215 25.4882 772.707 25.16C773.207 24.8241 773.457 24.3788 773.457 23.8241ZM698.14 55.1874H695.89V38.1249H698.14V55.1874ZM703.976 42.5077L704.047 44.1014C705.015 42.8827 706.281 42.2733 707.843 42.2733C710.523 42.2733 711.875 43.785 711.898 46.8085V55.1874H709.73V46.7968C709.722 45.8827 709.511 45.2069 709.097 44.7694C708.691 44.3319 708.054 44.1132 707.187 44.1132C706.484 44.1132 705.867 44.3007 705.336 44.6757C704.804 45.0507 704.39 45.5428 704.093 46.1522V55.1874H701.925V42.5077H703.976ZM722.55 51.8241C722.55 51.2382 722.328 50.785 721.883 50.4647C721.445 50.1366 720.675 49.8553 719.574 49.621C718.48 49.3866 717.609 49.1053 716.961 48.7772C716.32 48.4491 715.843 48.0585 715.531 47.6053C715.226 47.1522 715.074 46.6132 715.074 45.9882C715.074 44.9491 715.511 44.0702 716.386 43.3514C717.269 42.6327 718.394 42.2733 719.761 42.2733C721.199 42.2733 722.363 42.6444 723.254 43.3866C724.152 44.1288 724.601 45.078 724.601 46.2343H722.422C722.422 45.6405 722.168 45.1288 721.66 44.6991C721.16 44.2694 720.527 44.0546 719.761 44.0546C718.972 44.0546 718.355 44.2264 717.91 44.5702C717.465 44.9139 717.242 45.3632 717.242 45.9178C717.242 46.4413 717.449 46.8358 717.863 47.1014C718.277 47.3671 719.023 47.621 720.101 47.8632C721.187 48.1053 722.066 48.3944 722.738 48.7303C723.41 49.0663 723.906 49.4725 724.226 49.9491C724.554 50.4178 724.718 50.9921 724.718 51.6718C724.718 52.8046 724.265 53.7147 723.359 54.4022C722.453 55.0819 721.277 55.4218 719.832 55.4218C718.816 55.4218 717.918 55.2421 717.136 54.8827C716.355 54.5233 715.742 54.0233 715.297 53.3827C714.859 52.7343 714.64 52.035 714.64 51.285H716.808C716.847 52.0116 717.136 52.5897 717.675 53.0194C718.222 53.4413 718.941 53.6522 719.832 53.6522C720.652 53.6522 721.308 53.4882 721.8 53.16C722.3 52.8241 722.55 52.3788 722.55 51.8241ZM730.484 39.4374V42.5077H732.851V44.1835H730.484V52.0468C730.484 52.5546 730.59 52.9374 730.8 53.1952C731.011 53.4452 731.371 53.5702 731.879 53.5702C732.129 53.5702 732.472 53.5233 732.91 53.4296V55.1874C732.34 55.3436 731.785 55.4218 731.246 55.4218C730.277 55.4218 729.547 55.1288 729.054 54.5428C728.562 53.9569 728.316 53.1249 728.316 52.0468V44.1835H726.008V42.5077H728.316V39.4374H730.484ZM743.222 55.1874C743.097 54.9374 742.996 54.4921 742.918 53.8514C741.91 54.8983 740.707 55.4218 739.308 55.4218C738.058 55.4218 737.031 55.0702 736.226 54.3671C735.429 53.6561 735.031 52.7577 735.031 51.6718C735.031 50.3514 735.531 49.328 736.531 48.6014C737.539 47.8671 738.953 47.4999 740.773 47.4999H742.883V46.5038C742.883 45.746 742.656 45.1444 742.203 44.6991C741.75 44.246 741.082 44.0194 740.199 44.0194C739.425 44.0194 738.777 44.2147 738.254 44.6053C737.73 44.996 737.468 45.4686 737.468 46.0233H735.289C735.289 45.3905 735.511 44.7811 735.957 44.1952C736.41 43.6014 737.019 43.1327 737.785 42.7889C738.558 42.4452 739.406 42.2733 740.328 42.2733C741.789 42.2733 742.933 42.6405 743.761 43.3749C744.59 44.1014 745.019 45.1053 745.05 46.3866V52.2225C745.05 53.3866 745.199 54.3124 745.496 54.9999V55.1874H743.222ZM739.625 53.535C740.304 53.535 740.949 53.3593 741.558 53.0077C742.168 52.6561 742.609 52.1991 742.883 51.6366V49.035H741.183C738.527 49.035 737.199 49.8124 737.199 51.3671C737.199 52.0468 737.425 52.578 737.879 52.9608C738.332 53.3436 738.914 53.535 739.625 53.535ZM750.804 55.1874H748.636V37.1874H750.804V55.1874ZM756.64 55.1874H754.472V37.1874H756.64V55.1874ZM767.949 55.1874C767.824 54.9374 767.722 54.4921 767.644 53.8514C766.636 54.8983 765.433 55.4218 764.035 55.4218C762.785 55.4218 761.758 55.0702 760.953 54.3671C760.156 53.6561 759.758 52.7577 759.758 51.6718C759.758 50.3514 760.258 49.328 761.258 48.6014C762.265 47.8671 763.679 47.4999 765.5 47.4999H767.609V46.5038C767.609 45.746 767.383 45.1444 766.929 44.6991C766.476 44.246 765.808 44.0194 764.925 44.0194C764.152 44.0194 763.504 44.2147 762.98 44.6053C762.457 44.996 762.195 45.4686 762.195 46.0233H760.015C760.015 45.3905 760.238 44.7811 760.683 44.1952C761.136 43.6014 761.746 43.1327 762.511 42.7889C763.285 42.4452 764.133 42.2733 765.054 42.2733C766.515 42.2733 767.66 42.6405 768.488 43.3749C769.316 44.1014 769.746 45.1053 769.777 46.3866V52.2225C769.777 53.3866 769.925 54.3124 770.222 54.9999V55.1874H767.949ZM764.351 53.535C765.031 53.535 765.675 53.3593 766.285 53.0077C766.894 52.6561 767.336 52.1991 767.609 51.6366V49.035H765.91C763.254 49.035 761.925 49.8124 761.925 51.3671C761.925 52.0468 762.152 52.578 762.605 52.9608C763.058 53.3436 763.64 53.535 764.351 53.535ZM776.117 39.4374V42.5077H778.484V44.1835H776.117V52.0468C776.117 52.5546 776.222 52.9374 776.433 53.1952C776.644 53.4452 777.004 53.5702 777.511 53.5702C777.761 53.5702 778.105 53.5233 778.543 53.4296V55.1874C777.972 55.3436 777.418 55.4218 776.879 55.4218C775.91 55.4218 775.179 55.1288 774.687 54.5428C774.195 53.9569 773.949 53.1249 773.949 52.0468V44.1835H771.64V42.5077H773.949V39.4374H776.117ZM783.383 55.1874H781.215V42.5077H783.383V55.1874ZM781.039 39.1444C781.039 38.7928 781.144 38.496 781.355 38.2538C781.574 38.0116 781.894 37.8905 782.316 37.8905C782.738 37.8905 783.058 38.0116 783.277 38.2538C783.496 38.496 783.605 38.7928 783.605 39.1444C783.605 39.496 783.496 39.7889 783.277 40.0233C783.058 40.2577 782.738 40.3749 782.316 40.3749C781.894 40.3749 781.574 40.2577 781.355 40.0233C781.144 39.7889 781.039 39.496 781.039 39.1444ZM786.289 48.7303C786.289 47.4882 786.531 46.371 787.015 45.3788C787.508 44.3866 788.187 43.621 789.054 43.0819C789.929 42.5428 790.925 42.2733 792.043 42.2733C793.769 42.2733 795.164 42.871 796.226 44.0663C797.297 45.2616 797.832 46.8514 797.832 48.8358V48.9882C797.832 50.2225 797.593 51.3319 797.117 52.3163C796.648 53.2928 795.972 54.0546 795.09 54.6014C794.215 55.1483 793.207 55.4218 792.066 55.4218C790.347 55.4218 788.953 54.8241 787.883 53.6288C786.82 52.4335 786.289 50.8514 786.289 48.8827V48.7303ZM788.468 48.9882C788.468 50.3944 788.793 51.5233 789.441 52.3749C790.097 53.2264 790.972 53.6522 792.066 53.6522C793.168 53.6522 794.043 53.2225 794.691 52.3632C795.34 51.496 795.664 50.285 795.664 48.7303C795.664 47.3397 795.332 46.2147 794.668 45.3553C794.011 44.4882 793.136 44.0546 792.043 44.0546C790.972 44.0546 790.109 44.4803 789.453 45.3319C788.797 46.1835 788.468 47.4022 788.468 48.9882ZM802.601 42.5077L802.672 44.1014C803.64 42.8827 804.906 42.2733 806.468 42.2733C809.148 42.2733 810.5 43.785 810.523 46.8085V55.1874H808.355V46.7968C808.347 45.8827 808.136 45.2069 807.722 44.7694C807.316 44.3319 806.679 44.1132 805.812 44.1132C805.109 44.1132 804.492 44.3007 803.961 44.6757C803.429 45.0507 803.015 45.5428 802.718 46.1522V55.1874H800.55V42.5077H802.601Z" fill="white"/>
<path d="M375.381 26.1005H373.202V11.6513L368.831 13.2568V11.288L375.042 8.95599H375.381V26.1005ZM392.432 18.8232C392.432 21.3622 391.999 23.249 391.131 24.4833C390.264 25.7177 388.909 26.3349 387.065 26.3349C385.245 26.3349 383.897 25.7333 383.022 24.5302C382.147 23.3193 381.694 21.5146 381.663 19.1161V16.2216C381.663 13.7138 382.096 11.8505 382.963 10.6318C383.831 9.41302 385.19 8.80365 387.042 8.80365C388.877 8.80365 390.229 9.39349 391.096 10.5732C391.963 11.7451 392.409 13.5576 392.432 16.0107V18.8232ZM390.264 15.8583C390.264 14.0224 390.006 12.6865 389.491 11.8505C388.975 11.0068 388.159 10.5849 387.042 10.5849C385.932 10.5849 385.124 11.0029 384.616 11.8388C384.108 12.6747 383.846 13.9599 383.831 15.6943V19.163C383.831 21.0068 384.096 22.3701 384.627 23.2529C385.167 24.1279 385.979 24.5654 387.065 24.5654C388.135 24.5654 388.928 24.1513 389.444 23.3232C389.967 22.4951 390.241 21.1904 390.264 19.4091V15.8583ZM405.909 18.8232C405.909 21.3622 405.475 23.249 404.608 24.4833C403.741 25.7177 402.385 26.3349 400.542 26.3349C398.721 26.3349 397.374 25.7333 396.499 24.5302C395.624 23.3193 395.17 21.5146 395.139 19.1161V16.2216C395.139 13.7138 395.573 11.8505 396.44 10.6318C397.307 9.41302 398.667 8.80365 400.518 8.80365C402.354 8.80365 403.706 9.39349 404.573 10.5732C405.44 11.7451 405.885 13.5576 405.909 16.0107V18.8232ZM403.741 15.8583C403.741 14.0224 403.483 12.6865 402.967 11.8505C402.452 11.0068 401.635 10.5849 400.518 10.5849C399.409 10.5849 398.6 11.0029 398.092 11.8388C397.584 12.6747 397.323 13.9599 397.307 15.6943V19.163C397.307 21.0068 397.573 22.3701 398.104 23.2529C398.643 24.1279 399.456 24.5654 400.542 24.5654C401.612 24.5654 402.405 24.1513 402.92 23.3232C403.444 22.4951 403.717 21.1904 403.741 19.4091V15.8583ZM415.12 16.9482H419.877V18.999H415.12V24.3896H412.94V18.999H408.182V16.9482H412.94V11.9677H415.12V16.9482ZM441.85 18.1201C441.85 19.7685 441.588 21.1904 441.065 22.3857C440.542 23.5732 439.807 24.5029 438.862 25.1747L441.909 27.5654L440.374 28.9833L436.776 26.124C436.213 26.2646 435.62 26.3349 434.995 26.3349C433.651 26.3349 432.459 26.0068 431.42 25.3505C430.381 24.6865 429.573 23.7451 428.995 22.5263C428.424 21.2997 428.131 19.8818 428.116 18.2724V17.0419C428.116 15.4013 428.401 13.9521 428.971 12.6943C429.542 11.4365 430.346 10.4755 431.385 9.81146C432.432 9.13959 433.627 8.80365 434.971 8.80365C436.346 8.80365 437.553 9.13568 438.592 9.79974C439.639 10.4638 440.444 11.4208 441.006 12.6708C441.569 13.913 441.85 15.3661 441.85 17.0302V18.1201ZM439.6 17.0185C439.6 15.0107 439.198 13.4638 438.393 12.3779C437.596 11.2841 436.456 10.7372 434.971 10.7372C433.557 10.7372 432.44 11.2802 431.62 12.3661C430.807 13.4443 430.389 14.9443 430.366 16.8661V18.1201C430.366 20.0732 430.772 21.6122 431.584 22.7372C432.405 23.8622 433.542 24.4247 434.995 24.4247C436.448 24.4247 437.573 23.8974 438.37 22.8427C439.167 21.7802 439.577 20.2607 439.6 18.2841V17.0185ZM452.807 24.8466C451.963 25.8388 450.725 26.3349 449.092 26.3349C447.741 26.3349 446.709 25.9443 445.999 25.163C445.295 24.374 444.94 23.2099 444.932 21.6708V13.4208H447.1V21.6122C447.1 23.5341 447.881 24.4951 449.444 24.4951C451.1 24.4951 452.202 23.8779 452.749 22.6435V13.4208H454.917V26.1005H452.854L452.807 24.8466ZM466.049 26.1005C465.924 25.8505 465.823 25.4052 465.745 24.7646C464.737 25.8115 463.534 26.3349 462.135 26.3349C460.885 26.3349 459.858 25.9833 459.053 25.2802C458.256 24.5693 457.858 23.6708 457.858 22.5849C457.858 21.2646 458.358 20.2411 459.358 19.5146C460.366 18.7802 461.78 18.413 463.6 18.413H465.709V17.4169C465.709 16.6591 465.483 16.0576 465.03 15.6122C464.577 15.1591 463.909 14.9326 463.026 14.9326C462.252 14.9326 461.604 15.1279 461.081 15.5185C460.557 15.9091 460.295 16.3818 460.295 16.9365H458.116C458.116 16.3036 458.338 15.6943 458.784 15.1083C459.237 14.5146 459.846 14.0458 460.612 13.7021C461.385 13.3583 462.233 13.1865 463.155 13.1865C464.616 13.1865 465.76 13.5536 466.588 14.288C467.417 15.0146 467.846 16.0185 467.877 17.2997V23.1357C467.877 24.2997 468.026 25.2255 468.323 25.913V26.1005H466.049ZM462.452 24.4482C463.131 24.4482 463.776 24.2724 464.385 23.9208C464.995 23.5693 465.436 23.1122 465.709 22.5497V19.9482H464.01C461.354 19.9482 460.026 20.7255 460.026 22.2802C460.026 22.9599 460.252 23.4911 460.706 23.874C461.159 24.2568 461.741 24.4482 462.452 24.4482ZM473.631 26.1005H471.463V8.10052H473.631V26.1005ZM479.467 26.1005H477.299V13.4208H479.467V26.1005ZM477.124 10.0576C477.124 9.70599 477.229 9.40912 477.44 9.16693C477.659 8.92474 477.979 8.80365 478.401 8.80365C478.823 8.80365 479.143 8.92474 479.362 9.16693C479.581 9.40912 479.69 9.70599 479.69 10.0576C479.69 10.4091 479.581 10.7021 479.362 10.9365C479.143 11.1708 478.823 11.288 478.401 11.288C477.979 11.288 477.659 11.1708 477.44 10.9365C477.229 10.7021 477.124 10.4091 477.124 10.0576ZM485.889 10.3505V13.4208H488.256V15.0966H485.889V22.9599C485.889 23.4677 485.995 23.8505 486.206 24.1083C486.417 24.3583 486.776 24.4833 487.284 24.4833C487.534 24.4833 487.877 24.4365 488.315 24.3427V26.1005C487.745 26.2568 487.19 26.3349 486.651 26.3349C485.682 26.3349 484.952 26.0419 484.459 25.456C483.967 24.8701 483.721 24.038 483.721 22.9599V15.0966H481.413V13.4208H483.721V10.3505H485.889ZM494.948 22.9247L497.901 13.4208H500.221L495.124 28.0576C494.334 30.1669 493.081 31.2216 491.362 31.2216L490.952 31.1865L490.143 31.0341V29.2763L490.729 29.3232C491.463 29.3232 492.034 29.1747 492.44 28.8779C492.854 28.581 493.194 28.038 493.459 27.249L493.94 25.9599L489.417 13.4208H491.784L494.948 22.9247ZM373.565 52.5654C374.338 52.5654 375.014 52.331 375.592 51.8622C376.17 51.3935 376.491 50.8076 376.553 50.1044H378.604C378.565 50.831 378.315 51.5224 377.854 52.1786C377.393 52.8349 376.776 53.3583 376.002 53.749C375.237 54.1396 374.424 54.3349 373.565 54.3349C371.838 54.3349 370.463 53.7607 369.44 52.6122C368.424 51.456 367.917 49.8779 367.917 47.8779V47.5146C367.917 46.2802 368.143 45.1826 368.596 44.2216C369.049 43.2607 369.698 42.5146 370.542 41.9833C371.393 41.4521 372.397 41.1865 373.553 41.1865C374.975 41.1865 376.155 41.6122 377.092 42.4638C378.038 43.3154 378.542 44.4208 378.604 45.7802H376.553C376.491 44.9599 376.178 44.288 375.616 43.7646C375.061 43.2333 374.374 42.9677 373.553 42.9677C372.452 42.9677 371.596 43.3661 370.987 44.163C370.385 44.9521 370.084 46.0966 370.084 47.5966V48.0068C370.084 49.4677 370.385 50.5927 370.987 51.3818C371.588 52.1708 372.448 52.5654 373.565 52.5654ZM383.209 42.956C384.17 41.7763 385.42 41.1865 386.959 41.1865C389.639 41.1865 390.991 42.6982 391.014 45.7216V54.1005H388.846V45.7099C388.838 44.7958 388.627 44.1201 388.213 43.6826C387.807 43.2451 387.17 43.0263 386.303 43.0263C385.6 43.0263 384.983 43.2138 384.452 43.5888C383.92 43.9638 383.506 44.456 383.209 45.0654V54.1005H381.042V36.1005H383.209V42.956ZM399.522 54.3349C397.803 54.3349 396.405 53.7724 395.327 52.6474C394.249 51.5146 393.709 50.0029 393.709 48.1122V47.7138C393.709 46.456 393.948 45.3349 394.424 44.3505C394.909 43.3583 395.581 42.5849 396.44 42.0302C397.307 41.4677 398.245 41.1865 399.252 41.1865C400.901 41.1865 402.182 41.7294 403.096 42.8154C404.01 43.9013 404.467 45.456 404.467 47.4794V48.3818H395.877C395.909 49.6318 396.272 50.6435 396.967 51.4169C397.67 52.1826 398.561 52.5654 399.639 52.5654C400.405 52.5654 401.053 52.4091 401.584 52.0966C402.116 51.7841 402.581 51.3701 402.979 50.8544L404.303 51.8857C403.241 53.5185 401.647 54.3349 399.522 54.3349ZM399.252 42.9677C398.377 42.9677 397.643 43.288 397.049 43.9286C396.456 44.5615 396.088 45.4521 395.948 46.6005H402.299V46.4365C402.237 45.3349 401.94 44.4833 401.409 43.8818C400.877 43.2724 400.159 42.9677 399.252 42.9677ZM412.073 52.5654C412.846 52.5654 413.522 52.331 414.1 51.8622C414.678 51.3935 414.999 50.8076 415.061 50.1044H417.112C417.073 50.831 416.823 51.5224 416.362 52.1786C415.901 52.8349 415.284 53.3583 414.51 53.749C413.745 54.1396 412.932 54.3349 412.073 54.3349C410.346 54.3349 408.971 53.7607 407.948 52.6122C406.932 51.456 406.424 49.8779 406.424 47.8779V47.5146C406.424 46.2802 406.651 45.1826 407.104 44.2216C407.557 43.2607 408.206 42.5146 409.049 41.9833C409.901 41.4521 410.905 41.1865 412.061 41.1865C413.483 41.1865 414.663 41.6122 415.6 42.4638C416.545 43.3154 417.049 44.4208 417.112 45.7802H415.061C414.999 44.9599 414.686 44.288 414.124 43.7646C413.569 43.2333 412.881 42.9677 412.061 42.9677C410.959 42.9677 410.104 43.3661 409.495 44.163C408.893 44.9521 408.592 46.0966 408.592 47.5966V48.0068C408.592 49.4677 408.893 50.5927 409.495 51.3818C410.096 52.1708 410.956 52.5654 412.073 52.5654ZM423.088 48.2294L421.729 49.6474V54.1005H419.561V36.1005H421.729V46.9872L422.889 45.5927L426.838 41.4208H429.475L424.542 46.7177L430.049 54.1005H427.506L423.088 48.2294ZM439.096 50.7372C439.096 50.1513 438.874 49.6982 438.428 49.3779C437.991 49.0497 437.221 48.7685 436.12 48.5341C435.026 48.2997 434.155 48.0185 433.506 47.6904C432.866 47.3622 432.389 46.9716 432.077 46.5185C431.772 46.0654 431.62 45.5263 431.62 44.9013C431.62 43.8622 432.057 42.9833 432.932 42.2646C433.815 41.5458 434.94 41.1865 436.307 41.1865C437.745 41.1865 438.909 41.5576 439.799 42.2997C440.698 43.0419 441.147 43.9911 441.147 45.1474H438.967C438.967 44.5536 438.713 44.0419 438.206 43.6122C437.706 43.1826 437.073 42.9677 436.307 42.9677C435.518 42.9677 434.901 43.1396 434.456 43.4833C434.01 43.8271 433.788 44.2763 433.788 44.831C433.788 45.3544 433.995 45.749 434.409 46.0146C434.823 46.2802 435.569 46.5341 436.647 46.7763C437.733 47.0185 438.612 47.3076 439.284 47.6435C439.956 47.9794 440.452 48.3857 440.772 48.8622C441.1 49.331 441.264 49.9052 441.264 50.5849C441.264 51.7177 440.811 52.6279 439.905 53.3154C438.999 53.9951 437.823 54.3349 436.377 54.3349C435.362 54.3349 434.463 54.1552 433.682 53.7958C432.901 53.4365 432.288 52.9365 431.842 52.2958C431.405 51.6474 431.186 50.9482 431.186 50.1982H433.354C433.393 50.9247 433.682 51.5029 434.221 51.9326C434.768 52.3544 435.487 52.5654 436.377 52.5654C437.198 52.5654 437.854 52.4013 438.346 52.0732C438.846 51.7372 439.096 51.2919 439.096 50.7372Z" fill="white"/>
<g clip-path="url(#clip0)">
<path d="M613.177 35.1458L611.271 31.3333H624.614L623.089 27.5208H610.635L608.729 23.7083H628.554L627.029 19.8958H608.373L606.187 16.0833H615.718C615.718 14.7351 616.254 13.4422 617.207 12.4888C618.161 11.5355 619.454 11 620.802 11H651.302V21.1666H658.927L666.552 31.3333V44.0416H661.468C661.468 46.0639 660.665 48.0034 659.235 49.4333C657.805 50.8633 655.866 51.6666 653.843 51.6666C651.821 51.6666 649.882 50.8633 648.452 49.4333C647.022 48.0034 646.218 46.0639 646.218 44.0416H636.052C636.052 46.0639 635.248 48.0034 633.819 49.4333C632.389 50.8633 630.449 51.6666 628.427 51.6666C626.405 51.6666 624.465 50.8633 623.035 49.4333C621.605 48.0034 620.802 46.0639 620.802 44.0416H615.718V35.1458H613.177ZM653.843 47.8541C654.855 47.8541 655.824 47.4525 656.539 46.7375C657.254 46.0225 657.656 45.0528 657.656 44.0416C657.656 43.0305 657.254 42.0608 656.539 41.3458C655.824 40.6308 654.855 40.2291 653.843 40.2291C652.832 40.2291 651.863 40.6308 651.148 41.3458C650.433 42.0608 650.031 43.0305 650.031 44.0416C650.031 45.0528 650.433 46.0225 651.148 46.7375C651.863 47.4525 652.832 47.8541 653.843 47.8541ZM657.656 24.9791H651.302V31.3333H662.638L657.656 24.9791ZM628.427 47.8541C629.438 47.8541 630.408 47.4525 631.123 46.7375C631.838 46.0225 632.239 45.0528 632.239 44.0416C632.239 43.0305 631.838 42.0608 631.123 41.3458C630.408 40.6308 629.438 40.2291 628.427 40.2291C627.416 40.2291 626.446 40.6308 625.731 41.3458C625.016 42.0608 624.614 43.0305 624.614 44.0416C624.614 45.0528 625.016 46.0225 625.731 46.7375C626.446 47.4525 627.416 47.8541 628.427 47.8541Z" fill="white"/>
</g>
<path fill-rule="evenodd" clip-rule="evenodd" d="M969.468 42.5653C964.904 42.5653 960.268 39.941 957.562 36.4675C944.579 36.4675 944.186 54.4328 944.186 54.4328H994.747C994.747 54.4328 995.767 36.3878 981.166 36.3878C978.463 39.9042 974.032 42.5653 969.468 42.5653Z" fill="white"/>
<path fill-rule="evenodd" clip-rule="evenodd" d="M980.343 21.0284C980.343 26.1972 975.472 36.0812 969.459 36.0812C963.455 36.0812 958.581 26.1942 958.581 21.0284C958.581 15.8626 963.452 11.6686 969.459 11.6686C975.472 11.6717 980.343 15.8657 980.343 21.0284Z" fill="white"/>
<path fill-rule="evenodd" clip-rule="evenodd" d="M985.199 16.5677C985.199 15.5989 983.806 14.8172 982.078 14.811V12.8152C982.078 12.5179 982.195 5.55554 969.497 5.55554C956.805 5.55554 956.922 12.5179 956.922 12.8152V14.8816C956.891 14.8816 956.865 14.8724 956.837 14.8724C955.118 14.8724 953.735 15.6419 953.735 16.5953V25.0384C953.735 25.9857 955.121 26.7583 956.837 26.7583C958.552 26.7583 959.945 25.9857 959.945 25.0384V16.5953C959.945 16.4635 959.859 16.3439 959.809 16.2213V13.9189C959.809 13.7074 958.897 8.45268 969.497 8.45268C980.1 8.45268 978.998 13.7074 978.998 13.9189V16.3439C978.979 16.4206 978.919 16.488 978.919 16.5677V25.2039C978.919 26.1758 980.321 26.9637 982.059 26.9637C982.097 26.9637 982.125 26.9514 982.163 26.9514V30.1061H979.049V33.0798H985.23L985.199 16.5677Z" fill="white"/>
<path fill-rule="evenodd" clip-rule="evenodd" d="M305.116 12.8301C305.116 12.6222 305.204 12.4229 305.36 12.2759C305.516 12.1289 305.728 12.0463 305.949 12.0463H334.282C334.503 12.0463 334.715 12.1289 334.871 12.2759C335.028 12.4229 335.115 12.6222 335.115 12.8301V37.0826C335.115 37.7062 335.379 38.3042 335.848 38.7452C336.316 39.1861 336.952 39.4338 337.615 39.4338C338.278 39.4338 338.914 39.1861 339.383 38.7452C339.852 38.3042 340.115 37.7062 340.115 37.0826V12.8301C340.115 11.375 339.501 9.97958 338.407 8.9507C337.313 7.92183 335.829 7.34381 334.282 7.34381H305.949C304.402 7.34381 302.919 7.92183 301.825 8.9507C300.731 9.97958 300.116 11.375 300.116 12.8301V48.8828C300.116 51.9112 302.729 54.369 305.949 54.369H316.516C317.179 54.369 317.815 54.1213 318.283 53.6804C318.752 53.2394 319.016 52.6414 319.016 52.0178C319.016 51.3942 318.752 50.7961 318.283 50.3552C317.815 49.9142 317.179 49.6665 316.516 49.6665H305.949C305.728 49.6665 305.516 49.5839 305.36 49.437C305.204 49.29 305.116 49.0906 305.116 48.8828V12.8301ZM312.616 19.8839C311.953 19.8839 311.317 20.1316 310.848 20.5725C310.379 21.0135 310.116 21.6115 310.116 22.2351C310.116 22.8587 310.379 23.4568 310.848 23.8977C311.317 24.3387 311.953 24.5864 312.616 24.5864H327.616C328.279 24.5864 328.914 24.3387 329.383 23.8977C329.852 23.4568 330.115 22.8587 330.115 22.2351C330.115 21.6115 329.852 21.0135 329.383 20.5725C328.914 20.1316 328.279 19.8839 327.616 19.8839H312.616ZM310.116 31.6402C310.116 31.0166 310.379 30.4185 310.848 29.9776C311.317 29.5366 311.953 29.2889 312.616 29.2889H319.282C319.945 29.2889 320.581 29.5366 321.05 29.9776C321.519 30.4185 321.782 31.0166 321.782 31.6402C321.782 32.2638 321.519 32.8618 321.05 33.3028C320.581 33.7437 319.945 33.9914 319.282 33.9914H312.616C311.953 33.9914 311.317 33.7437 310.848 33.3028C310.379 32.8618 310.116 32.2638 310.116 31.6402ZM349.362 42.7287C349.597 42.513 349.784 42.2558 349.914 41.9719C350.043 41.688 350.112 41.3829 350.116 41.074C350.12 40.7652 350.059 40.4586 349.937 40.1718C349.815 39.885 349.634 39.6236 349.405 39.4025C349.176 39.1814 348.902 39.005 348.6 38.8833C348.299 38.7616 347.974 38.697 347.646 38.6932C347.317 38.6894 346.991 38.7465 346.686 38.8612C346.382 38.9759 346.104 39.146 345.869 39.3617L332.449 51.6886L327.719 47.2212C327.246 46.805 326.619 46.5778 325.972 46.5873C325.324 46.5969 324.706 46.8426 324.247 47.2726C323.788 47.7026 323.524 48.2833 323.512 48.8924C323.499 49.5016 323.738 50.0916 324.179 50.5381L330.655 56.6513C331.12 57.0902 331.75 57.339 332.408 57.3437C333.067 57.3484 333.701 57.1086 334.172 56.6764L349.362 42.7256V42.7287Z" fill="white"/>
<defs>
<clipPath id="clip0">
<rect width="61" height="61" fill="white" transform="translate(605.552 0.833313)"/>
</clipPath>
</defs>
</svg>
