<svg width="1292" height="342" viewBox="0 0 1292 342" fill="none" xmlns="http://www.w3.org/2000/svg">
<path d="M90.2544 56.1936C77.1436 56.1936 50.9712 61.7015 50.9712 72.635V80.8556H129.538V72.635C129.538 61.7015 103.365 56.1936 90.2544 56.1936ZM154.581 22.6533C154.63 22.2012 154.679 21.749 154.679 21.2558C154.679 20.7626 154.63 20.3104 154.532 19.8583L158.165 17.4743C158.509 17.2688 158.558 16.8577 158.362 16.57L154.924 11.5965C154.728 11.2677 154.237 11.1855 153.893 11.2677L149.67 12.7063C148.786 12.1309 147.804 11.6787 146.773 11.3088L146.135 7.48619C146.098 7.31275 145.989 7.15581 145.827 7.04302C145.665 6.93023 145.461 6.86883 145.251 6.86964H138.376C137.934 6.86964 137.591 7.11626 137.542 7.48619L136.903 11.3088C135.872 11.6787 134.89 12.172 134.006 12.7063L129.734 11.2677C129.341 11.1444 128.899 11.2677 128.703 11.5965L125.266 16.57C125.069 16.8989 125.118 17.2688 125.462 17.4743L129.096 19.8583C128.9 20.7828 128.9 21.7288 129.096 22.6533L125.462 25.0373C125.118 25.2428 125.069 25.6539 125.266 25.9416L128.703 30.9151C128.899 31.2439 129.39 31.3261 129.734 31.2439L134.006 29.8053C134.89 30.3807 135.872 30.8329 136.903 31.2028L137.542 35.0254C137.591 35.3954 137.934 35.642 138.376 35.642H145.251C145.693 35.642 146.037 35.3954 146.086 35.0254L146.724 31.2028C147.755 30.8329 148.737 30.3396 149.621 29.8053L153.893 31.2439C154.286 31.3672 154.728 31.2439 154.924 30.9151L158.362 25.9416C158.558 25.6128 158.509 25.2428 158.165 25.0373L154.581 22.6533ZM141.814 26.3937C140.186 26.3937 138.625 25.8524 137.473 24.8889C136.322 23.9253 135.676 22.6185 135.676 21.2558C135.676 19.8931 136.322 18.5863 137.473 17.6227C138.625 16.6592 140.186 16.1179 141.814 16.1179C143.442 16.1179 145.003 16.6592 146.154 17.6227C147.305 18.5863 147.952 19.8931 147.952 21.2558C147.952 22.6185 147.305 23.9253 146.154 24.8889C145.003 25.8524 143.442 26.3937 141.814 26.3937ZM143.876 42.5473L141.421 38.9713C141.274 38.7247 140.93 38.6425 140.684 38.7247L137.64 39.7523C137.001 39.3413 136.314 39.0124 135.577 38.7658L135.136 36.053C135.085 35.9337 134.992 35.8303 134.869 35.7568C134.746 35.6833 134.599 35.6432 134.448 35.642H129.538C129.243 35.642 128.997 35.8064 128.948 36.0941L128.506 38.8069C127.77 39.0535 127.082 39.4235 126.444 39.7934L123.4 38.7658C123.105 38.6836 122.81 38.7658 122.663 39.0124L120.208 42.5884C120.061 42.8351 120.11 43.0817 120.355 43.2461L122.958 44.9313C122.909 45.2602 122.859 45.589 122.859 45.9178C122.859 46.2466 122.909 46.6166 122.958 46.9043L120.355 48.5895C120.11 48.7539 120.061 49.0417 120.208 49.2472L122.663 52.8232C122.81 53.0698 123.154 53.152 123.4 53.0698L126.444 52.0422C127.082 52.4532 127.77 52.7821 128.506 53.0287L128.948 55.7415C128.997 56.0292 129.243 56.1936 129.538 56.1936H134.448C134.743 56.1936 135.037 56.0292 135.037 55.7415L135.479 53.0287C136.216 52.7821 136.903 52.4121 137.542 52.0422L140.586 53.0698C140.881 53.152 141.175 53.0698 141.323 52.8232L143.778 49.2472C143.925 49.0006 143.876 48.7539 143.631 48.5895L141.077 46.9043C141.126 46.5755 141.175 46.2466 141.175 45.9178C141.175 45.589 141.126 45.219 141.077 44.9313L143.68 43.2461C143.925 43.0817 143.974 42.794 143.876 42.5473ZM131.993 49.3294C129.734 49.3294 127.917 47.7675 127.917 45.9178C127.917 44.0271 129.783 42.5062 131.993 42.5062C134.203 42.5062 136.068 44.0682 136.068 45.9178C136.068 47.8086 134.252 49.3294 131.993 49.3294ZM69.3361 31.5316H111.222C112.548 31.5316 113.628 30.6274 113.628 29.5176V29.4354C113.628 28.9012 113.374 28.3889 112.923 28.0112C112.472 27.6335 111.86 27.4213 111.222 27.4213H109.896C109.896 21.338 105.919 16.1179 100.075 13.2407V17.1455C100.075 18.2964 98.9949 19.2006 97.62 19.2006C96.2451 19.2006 95.1648 18.2964 95.1648 17.1455V11.5554C93.5935 11.2266 91.9731 10.98 90.2544 10.98C88.5358 10.98 86.9153 11.2266 85.344 11.5554V17.1455C85.344 18.2964 84.2637 19.2006 82.8888 19.2006C81.5139 19.2006 80.4336 18.2964 80.4336 17.1455V13.2407C74.5902 16.1179 70.6128 21.338 70.6128 27.4213H69.3361C69.0201 27.4213 68.7072 27.4734 68.4153 27.5746C68.1234 27.6758 67.8582 27.8242 67.6347 28.0112C67.4113 28.1982 67.2341 28.4203 67.1132 28.6646C66.9922 28.909 66.93 29.1709 66.93 29.4354V29.5587C66.93 30.6274 68.0103 31.5316 69.3361 31.5316ZM90.2544 47.973C99.3878 47.973 106.999 42.7117 109.209 35.642H71.3003C73.5099 42.7117 81.1211 47.973 90.2544 47.973Z" fill="white"/>
<path d="M47.4963 122.149V129.163H43.3948V109.257H51.1604C52.6552 109.257 53.9677 109.53 55.0979 110.077C56.2372 110.624 57.1122 111.403 57.7229 112.415C58.3336 113.417 58.6389 114.561 58.6389 115.846C58.6389 117.797 57.969 119.337 56.6292 120.468C55.2984 121.589 53.4527 122.149 51.092 122.149H47.4963ZM47.4963 118.827H51.1604C52.245 118.827 53.0699 118.572 53.635 118.061C54.2092 117.551 54.4963 116.822 54.4963 115.874C54.4963 114.899 54.2092 114.11 53.635 113.509C53.0608 112.907 52.2678 112.597 51.2561 112.579H47.4963V118.827ZM69.5217 118.075C68.984 118.002 68.51 117.966 68.0999 117.966C66.6051 117.966 65.6252 118.471 65.1604 119.483V129.163H61.2092V114.37H64.9417L65.051 116.134C65.844 114.775 66.9423 114.096 68.3459 114.096C68.7834 114.096 69.1936 114.156 69.5764 114.274L69.5217 118.075ZM77.9709 129.436C75.8017 129.436 74.0334 128.771 72.6663 127.44C71.3082 126.109 70.6292 124.337 70.6292 122.122V121.739C70.6292 120.253 70.9163 118.927 71.4905 117.76C72.0647 116.585 72.8759 115.682 73.9241 115.053C74.9814 114.415 76.1845 114.096 77.5334 114.096C79.5569 114.096 81.1474 114.734 82.3049 116.01C83.4716 117.287 84.0549 119.096 84.0549 121.438V123.052H74.635C74.7626 124.018 75.1454 124.792 75.7834 125.376C76.4306 125.959 77.2463 126.251 78.2307 126.251C79.7528 126.251 80.9423 125.699 81.7991 124.596L83.7405 126.77C83.148 127.609 82.3459 128.265 81.3342 128.739C80.3225 129.204 79.2014 129.436 77.9709 129.436ZM77.5198 117.296C76.7359 117.296 76.0979 117.56 75.6057 118.089C75.1226 118.617 74.8127 119.374 74.676 120.358H80.1721V120.044C80.1539 119.169 79.9169 118.494 79.4612 118.02C79.0055 117.537 78.3583 117.296 77.5198 117.296ZM92.4631 126.251C93.1923 126.251 93.7847 126.05 94.2405 125.649C94.6962 125.248 94.9332 124.715 94.9514 124.05H98.6565C98.6474 125.052 98.3739 125.973 97.8362 126.811C97.2984 127.641 96.5601 128.288 95.6213 128.753C94.6917 129.208 93.6617 129.436 92.5315 129.436C90.4169 129.436 88.7489 128.766 87.5276 127.427C86.3062 126.078 85.6956 124.218 85.6956 121.848V121.589C85.6956 119.31 86.3017 117.492 87.5139 116.134C88.7262 114.775 90.3896 114.096 92.5042 114.096C94.3544 114.096 95.8355 114.625 96.9475 115.682C98.0686 116.731 98.6383 118.13 98.6565 119.88H94.9514C94.9332 119.114 94.6962 118.494 94.2405 118.02C93.7847 117.537 93.1832 117.296 92.4358 117.296C91.5152 117.296 90.818 117.633 90.344 118.307C89.8792 118.973 89.6467 120.057 89.6467 121.561V121.971C89.6467 123.494 89.8792 124.587 90.344 125.253C90.8088 125.918 91.5152 126.251 92.4631 126.251ZM105.082 129.163H101.117V114.37H105.082V129.163ZM100.885 110.542C100.885 109.949 101.081 109.462 101.473 109.079C101.874 108.696 102.416 108.505 103.1 108.505C103.774 108.505 104.312 108.696 104.713 109.079C105.114 109.462 105.315 109.949 105.315 110.542C105.315 111.143 105.11 111.635 104.699 112.018C104.298 112.401 103.765 112.593 103.1 112.593C102.434 112.593 101.897 112.401 101.487 112.018C101.086 111.635 100.885 111.143 100.885 110.542ZM116.362 125.075C116.362 124.592 116.12 124.214 115.637 123.94C115.163 123.658 114.397 123.407 113.34 123.188C109.822 122.45 108.063 120.955 108.063 118.704C108.063 117.391 108.605 116.298 109.69 115.423C110.783 114.538 112.21 114.096 113.969 114.096C115.847 114.096 117.346 114.538 118.467 115.423C119.597 116.307 120.162 117.455 120.162 118.868H116.211C116.211 118.303 116.029 117.838 115.664 117.473C115.3 117.1 114.73 116.913 113.955 116.913C113.29 116.913 112.775 117.063 112.41 117.364C112.046 117.665 111.864 118.048 111.864 118.512C111.864 118.95 112.069 119.305 112.479 119.579C112.898 119.843 113.6 120.076 114.584 120.276C115.569 120.468 116.398 120.686 117.073 120.932C119.16 121.698 120.203 123.024 120.203 124.911C120.203 126.26 119.625 127.354 118.467 128.192C117.309 129.022 115.815 129.436 113.983 129.436C112.743 129.436 111.64 129.218 110.674 128.78C109.717 128.333 108.965 127.727 108.418 126.962C107.871 126.187 107.598 125.353 107.598 124.46H111.344C111.38 125.162 111.64 125.699 112.123 126.073C112.606 126.447 113.253 126.634 114.065 126.634C114.821 126.634 115.391 126.492 115.774 126.21C116.166 125.918 116.362 125.54 116.362 125.075ZM126.93 129.163H122.965V114.37H126.93V129.163ZM122.733 110.542C122.733 109.949 122.929 109.462 123.321 109.079C123.722 108.696 124.264 108.505 124.948 108.505C125.622 108.505 126.16 108.696 126.561 109.079C126.962 109.462 127.162 109.949 127.162 110.542C127.162 111.143 126.957 111.635 126.547 112.018C126.146 112.401 125.613 112.593 124.948 112.593C124.282 112.593 123.744 112.401 123.334 112.018C122.933 111.635 122.733 111.143 122.733 110.542ZM129.582 121.63C129.582 120.162 129.865 118.854 130.43 117.706C130.995 116.557 131.806 115.669 132.864 115.04C133.93 114.411 135.165 114.096 136.569 114.096C138.565 114.096 140.192 114.707 141.449 115.928C142.716 117.15 143.423 118.809 143.569 120.905L143.596 121.917C143.596 124.186 142.962 126.009 141.696 127.385C140.429 128.753 138.729 129.436 136.596 129.436C134.463 129.436 132.759 128.753 131.483 127.385C130.216 126.018 129.582 124.159 129.582 121.807V121.63ZM133.533 121.917C133.533 123.32 133.798 124.396 134.326 125.143C134.855 125.882 135.612 126.251 136.596 126.251C137.553 126.251 138.3 125.886 138.838 125.157C139.376 124.419 139.645 123.243 139.645 121.63C139.645 120.253 139.376 119.187 138.838 118.43C138.3 117.674 137.544 117.296 136.569 117.296C135.602 117.296 134.855 117.674 134.326 118.43C133.798 119.178 133.533 120.34 133.533 121.917ZM149.666 114.37L149.789 116.079C150.847 114.757 152.264 114.096 154.041 114.096C155.609 114.096 156.776 114.557 157.541 115.477C158.307 116.398 158.699 117.774 158.717 119.606V129.163H154.766V119.702C154.766 118.863 154.584 118.257 154.219 117.884C153.854 117.501 153.248 117.309 152.401 117.309C151.289 117.309 150.455 117.783 149.899 118.731V129.163H145.948V114.37H149.666ZM39.053 153.536H31.178V158.868H40.4202V162.163H27.0764V142.257H40.3928V145.579H31.178V150.323H39.053V153.536ZM46.2034 147.37L46.3264 149.079C47.3837 147.757 48.801 147.096 50.5784 147.096C52.1461 147.096 53.3127 147.557 54.0784 148.477C54.844 149.398 55.2359 150.774 55.2542 152.606V162.163H51.303V152.702C51.303 151.863 51.1207 151.257 50.7561 150.884C50.3915 150.501 49.7854 150.309 48.9377 150.309C47.8258 150.309 46.9918 150.783 46.4358 151.731V162.163H42.4846V147.37H46.2034ZM57.6877 154.657C57.6877 152.387 58.2255 150.56 59.301 149.175C60.3857 147.789 61.844 147.096 63.676 147.096C65.2984 147.096 66.5608 147.652 67.4631 148.764L67.6272 147.37H71.2092V161.671C71.2092 162.965 70.913 164.091 70.3206 165.048C69.7372 166.005 68.9124 166.734 67.8459 167.235C66.7795 167.736 65.5308 167.987 64.0999 167.987C63.0152 167.987 61.9579 167.768 60.928 167.331C59.898 166.902 59.1187 166.346 58.5901 165.663L60.3401 163.257C61.3245 164.359 62.5185 164.911 63.9221 164.911C64.9703 164.911 65.7861 164.628 66.3694 164.063C66.9527 163.507 67.2444 162.714 67.2444 161.684V160.891C66.3329 161.921 65.1344 162.436 63.6487 162.436C61.8713 162.436 60.4312 161.744 59.3284 160.358C58.2346 158.964 57.6877 157.118 57.6877 154.821V154.657ZM61.6389 154.944C61.6389 156.284 61.9078 157.337 62.4456 158.102C62.9833 158.859 63.7216 159.237 64.6604 159.237C65.8635 159.237 66.7249 158.786 67.2444 157.884V151.663C66.7157 150.76 65.8635 150.309 64.6877 150.309C63.7398 150.309 62.9924 150.697 62.4456 151.471C61.9078 152.246 61.6389 153.404 61.6389 154.944ZM78.428 162.163H74.4631V147.37H78.428V162.163ZM74.2307 143.542C74.2307 142.949 74.4267 142.462 74.8186 142.079C75.2196 141.696 75.762 141.505 76.4456 141.505C77.12 141.505 77.6578 141.696 78.0588 142.079C78.4599 142.462 78.6604 142.949 78.6604 143.542C78.6604 144.143 78.4553 144.635 78.0452 145.018C77.6441 145.401 77.1109 145.593 76.4456 145.593C75.7802 145.593 75.2424 145.401 74.8323 145.018C74.4312 144.635 74.2307 144.143 74.2307 143.542ZM85.3323 147.37L85.4553 149.079C86.5126 147.757 87.9299 147.096 89.7073 147.096C91.275 147.096 92.4417 147.557 93.2073 148.477C93.9729 149.398 94.3648 150.774 94.3831 152.606V162.163H90.4319V152.702C90.4319 151.863 90.2496 151.257 89.885 150.884C89.5204 150.501 88.9143 150.309 88.0667 150.309C86.9547 150.309 86.1207 150.783 85.5647 151.731V162.163H81.6135V147.37H85.3323ZM104.199 162.436C102.03 162.436 100.262 161.771 98.8948 160.44C97.5367 159.109 96.8577 157.337 96.8577 155.122V154.739C96.8577 153.253 97.1448 151.927 97.719 150.76C98.2932 149.585 99.1044 148.682 100.153 148.053C101.21 147.415 102.413 147.096 103.762 147.096C105.785 147.096 107.376 147.734 108.533 149.01C109.7 150.287 110.283 152.096 110.283 154.438V156.052H100.864C100.991 157.018 101.374 157.792 102.012 158.376C102.659 158.959 103.475 159.251 104.459 159.251C105.981 159.251 107.171 158.699 108.028 157.596L109.969 159.77C109.377 160.609 108.574 161.265 107.563 161.739C106.551 162.204 105.43 162.436 104.199 162.436ZM103.748 150.296C102.964 150.296 102.326 150.56 101.834 151.089C101.351 151.617 101.041 152.374 100.905 153.358H106.401V153.044C106.382 152.169 106.145 151.494 105.69 151.02C105.234 150.537 104.587 150.296 103.748 150.296ZM119.348 162.436C117.179 162.436 115.41 161.771 114.043 160.44C112.685 159.109 112.006 157.337 112.006 155.122V154.739C112.006 153.253 112.293 151.927 112.867 150.76C113.442 149.585 114.253 148.682 115.301 148.053C116.358 147.415 117.561 147.096 118.91 147.096C120.934 147.096 122.524 147.734 123.682 149.01C124.849 150.287 125.432 152.096 125.432 154.438V156.052H116.012C116.14 157.018 116.522 157.792 117.16 158.376C117.808 158.959 118.623 159.251 119.608 159.251C121.13 159.251 122.319 158.699 123.176 157.596L125.117 159.77C124.525 160.609 123.723 161.265 122.711 161.739C121.699 162.204 120.578 162.436 119.348 162.436ZM118.897 150.296C118.113 150.296 117.475 150.56 116.983 151.089C116.5 151.617 116.19 152.374 116.053 153.358H121.549V153.044C121.531 152.169 121.294 151.494 120.838 151.02C120.382 150.537 119.735 150.296 118.897 150.296ZM136 151.075C135.462 151.002 134.989 150.966 134.578 150.966C133.084 150.966 132.104 151.471 131.639 152.483V162.163H127.688V147.37H131.42L131.53 149.134C132.323 147.775 133.421 147.096 134.824 147.096C135.262 147.096 135.672 147.156 136.055 147.274L136 151.075ZM142.084 162.163H138.119V147.37H142.084V162.163ZM137.887 143.542C137.887 142.949 138.083 142.462 138.475 142.079C138.876 141.696 139.418 141.505 140.102 141.505C140.776 141.505 141.314 141.696 141.715 142.079C142.116 142.462 142.317 142.949 142.317 143.542C142.317 144.143 142.112 144.635 141.701 145.018C141.3 145.401 140.767 145.593 140.102 145.593C139.436 145.593 138.899 145.401 138.489 145.018C138.087 144.635 137.887 144.143 137.887 143.542ZM148.989 147.37L149.112 149.079C150.169 147.757 151.586 147.096 153.364 147.096C154.931 147.096 156.098 147.557 156.864 148.477C157.629 149.398 158.021 150.774 158.039 152.606V162.163H154.088V152.702C154.088 151.863 153.906 151.257 153.541 150.884C153.177 150.501 152.571 150.309 151.723 150.309C150.611 150.309 149.777 150.783 149.221 151.731V162.163H145.27V147.37H148.989ZM160.473 154.657C160.473 152.387 161.011 150.56 162.086 149.175C163.171 147.789 164.629 147.096 166.461 147.096C168.084 147.096 169.346 147.652 170.248 148.764L170.412 147.37H173.994V161.671C173.994 162.965 173.698 164.091 173.106 165.048C172.522 166.005 171.698 166.734 170.631 167.235C169.565 167.736 168.316 167.987 166.885 167.987C165.8 167.987 164.743 167.768 163.713 167.331C162.683 166.902 161.904 166.346 161.375 165.663L163.125 163.257C164.11 164.359 165.304 164.911 166.707 164.911C167.755 164.911 168.571 164.628 169.155 164.063C169.738 163.507 170.03 162.714 170.03 161.684V160.891C169.118 161.921 167.92 162.436 166.434 162.436C164.656 162.436 163.216 161.744 162.114 160.358C161.02 158.964 160.473 157.118 160.473 154.821V154.657ZM164.424 154.944C164.424 156.284 164.693 157.337 165.231 158.102C165.768 158.859 166.507 159.237 167.446 159.237C168.649 159.237 169.51 158.786 170.03 157.884V151.663C169.501 150.76 168.649 150.309 167.473 150.309C166.525 150.309 165.778 150.697 165.231 151.471C164.693 152.246 164.424 153.404 164.424 154.944Z" fill="white"/>
<path d="M603.092 106.077L608.205 120.514L613.291 106.077H618.678V125.983H614.562V120.542L614.973 111.149L609.6 125.983H606.783L601.424 111.163L601.834 120.542V125.983H597.732V106.077H603.092ZM621.385 118.45C621.385 116.983 621.667 115.675 622.232 114.526C622.797 113.378 623.609 112.489 624.666 111.86C625.732 111.231 626.967 110.917 628.371 110.917C630.367 110.917 631.994 111.527 633.252 112.749C634.519 113.97 635.225 115.629 635.371 117.725L635.398 118.737C635.398 121.007 634.765 122.83 633.498 124.206C632.231 125.573 630.531 126.257 628.398 126.257C626.266 126.257 624.561 125.573 623.285 124.206C622.018 122.839 621.385 120.979 621.385 118.628V118.45ZM625.336 118.737C625.336 120.141 625.6 121.216 626.129 121.964C626.658 122.702 627.414 123.071 628.398 123.071C629.355 123.071 630.103 122.706 630.641 121.977C631.178 121.239 631.447 120.063 631.447 118.45C631.447 117.074 631.178 116.007 630.641 115.251C630.103 114.494 629.346 114.116 628.371 114.116C627.405 114.116 626.658 114.494 626.129 115.251C625.6 115.998 625.336 117.16 625.336 118.737ZM642.002 125.983H638.037V111.19H642.002V125.983ZM637.805 107.362C637.805 106.77 638.001 106.282 638.393 105.899C638.794 105.516 639.336 105.325 640.02 105.325C640.694 105.325 641.232 105.516 641.633 105.899C642.034 106.282 642.234 106.77 642.234 107.362C642.234 107.964 642.029 108.456 641.619 108.839C641.218 109.221 640.685 109.413 640.02 109.413C639.354 109.413 638.816 109.221 638.406 108.839C638.005 108.456 637.805 107.964 637.805 107.362ZM653.281 121.895C653.281 121.412 653.04 121.034 652.557 120.76C652.083 120.478 651.317 120.227 650.26 120.009C646.742 119.27 644.982 117.775 644.982 115.524C644.982 114.212 645.525 113.118 646.609 112.243C647.703 111.359 649.13 110.917 650.889 110.917C652.766 110.917 654.266 111.359 655.387 112.243C656.517 113.127 657.082 114.275 657.082 115.688H653.131C653.131 115.123 652.949 114.658 652.584 114.294C652.219 113.92 651.65 113.733 650.875 113.733C650.21 113.733 649.695 113.884 649.33 114.184C648.965 114.485 648.783 114.868 648.783 115.333C648.783 115.77 648.988 116.126 649.398 116.399C649.818 116.663 650.52 116.896 651.504 117.096C652.488 117.288 653.318 117.507 653.992 117.753C656.079 118.518 657.123 119.844 657.123 121.731C657.123 123.08 656.544 124.174 655.387 125.012C654.229 125.842 652.734 126.257 650.902 126.257C649.663 126.257 648.56 126.038 647.594 125.6C646.637 125.154 645.885 124.548 645.338 123.782C644.791 123.007 644.518 122.173 644.518 121.28H648.264C648.3 121.982 648.56 122.52 649.043 122.893C649.526 123.267 650.173 123.454 650.984 123.454C651.741 123.454 652.311 123.313 652.693 123.03C653.085 122.738 653.281 122.36 653.281 121.895ZM664.41 107.553V111.19H666.939V114.089H664.41V121.471C664.41 122.018 664.515 122.41 664.725 122.647C664.934 122.884 665.335 123.003 665.928 123.003C666.365 123.003 666.753 122.971 667.09 122.907V125.901C666.315 126.138 665.518 126.257 664.697 126.257C661.926 126.257 660.514 124.858 660.459 122.059V114.089H658.299V111.19H660.459V107.553H664.41ZM678 124.479C677.025 125.664 675.676 126.257 673.953 126.257C672.367 126.257 671.155 125.801 670.316 124.889C669.487 123.978 669.063 122.643 669.045 120.884V111.19H672.996V120.747C672.996 122.287 673.698 123.057 675.102 123.057C676.441 123.057 677.362 122.593 677.863 121.663V111.19H681.828V125.983H678.109L678 124.479ZM693.121 114.895C692.583 114.822 692.109 114.786 691.699 114.786C690.204 114.786 689.225 115.292 688.76 116.303V125.983H684.809V111.19H688.541L688.65 112.954C689.443 111.596 690.542 110.917 691.945 110.917C692.383 110.917 692.793 110.976 693.176 111.094L693.121 114.895ZM701.57 126.257C699.401 126.257 697.633 125.591 696.266 124.26C694.908 122.93 694.228 121.157 694.228 118.942V118.559C694.228 117.074 694.516 115.747 695.09 114.581C695.664 113.405 696.475 112.503 697.523 111.874C698.581 111.236 699.784 110.917 701.133 110.917C703.156 110.917 704.747 111.555 705.904 112.831C707.071 114.107 707.654 115.916 707.654 118.259V119.872H698.234C698.362 120.838 698.745 121.613 699.383 122.196C700.03 122.779 700.846 123.071 701.83 123.071C703.352 123.071 704.542 122.52 705.398 121.417L707.34 123.591C706.747 124.429 705.945 125.085 704.934 125.559C703.922 126.024 702.801 126.257 701.57 126.257ZM701.119 114.116C700.335 114.116 699.697 114.38 699.205 114.909C698.722 115.438 698.412 116.194 698.275 117.178H703.771V116.864C703.753 115.989 703.516 115.315 703.061 114.841C702.605 114.358 701.958 114.116 701.119 114.116ZM606.01 147.895C605.472 147.822 604.998 147.786 604.588 147.786C603.093 147.786 602.113 148.292 601.648 149.303V158.983H597.697V144.19H601.43L601.539 145.954C602.332 144.596 603.43 143.917 604.834 143.917C605.271 143.917 605.682 143.976 606.064 144.094L606.01 147.895ZM614.459 159.257C612.29 159.257 610.521 158.591 609.154 157.26C607.796 155.93 607.117 154.157 607.117 151.942V151.559C607.117 150.074 607.404 148.747 607.978 147.581C608.553 146.405 609.364 145.503 610.412 144.874C611.469 144.236 612.672 143.917 614.021 143.917C616.045 143.917 617.635 144.555 618.793 145.831C619.96 147.107 620.543 148.916 620.543 151.259V152.872H611.123C611.251 153.838 611.633 154.613 612.271 155.196C612.919 155.779 613.734 156.071 614.719 156.071C616.241 156.071 617.43 155.52 618.287 154.417L620.228 156.591C619.636 157.429 618.834 158.085 617.822 158.559C616.811 159.024 615.689 159.257 614.459 159.257ZM614.008 147.116C613.224 147.116 612.586 147.38 612.094 147.909C611.611 148.438 611.301 149.194 611.164 150.178H616.66V149.864C616.642 148.989 616.405 148.315 615.949 147.841C615.493 147.358 614.846 147.116 614.008 147.116ZM630.811 154.895C630.811 154.412 630.569 154.034 630.086 153.76C629.612 153.478 628.846 153.227 627.789 153.009C624.271 152.27 622.512 150.775 622.512 148.524C622.512 147.212 623.054 146.118 624.139 145.243C625.232 144.359 626.659 143.917 628.418 143.917C630.296 143.917 631.795 144.359 632.916 145.243C634.046 146.127 634.611 147.275 634.611 148.688H630.66C630.66 148.123 630.478 147.658 630.113 147.294C629.749 146.92 629.179 146.733 628.404 146.733C627.739 146.733 627.224 146.884 626.859 147.184C626.495 147.485 626.312 147.868 626.312 148.333C626.312 148.77 626.518 149.126 626.928 149.399C627.347 149.663 628.049 149.896 629.033 150.096C630.018 150.288 630.847 150.507 631.521 150.753C633.609 151.518 634.652 152.844 634.652 154.731C634.652 156.08 634.074 157.174 632.916 158.012C631.758 158.842 630.264 159.257 628.432 159.257C627.192 159.257 626.089 159.038 625.123 158.6C624.166 158.154 623.414 157.548 622.867 156.782C622.32 156.007 622.047 155.173 622.047 154.28H625.793C625.829 154.982 626.089 155.52 626.572 155.893C627.055 156.267 627.702 156.454 628.514 156.454C629.27 156.454 629.84 156.313 630.223 156.03C630.615 155.738 630.811 155.36 630.811 154.895ZM641.379 158.983H637.414V144.19H641.379V158.983ZM637.182 140.362C637.182 139.77 637.378 139.282 637.77 138.899C638.171 138.516 638.713 138.325 639.396 138.325C640.071 138.325 640.609 138.516 641.01 138.899C641.411 139.282 641.611 139.77 641.611 140.362C641.611 140.964 641.406 141.456 640.996 141.839C640.595 142.221 640.062 142.413 639.396 142.413C638.731 142.413 638.193 142.221 637.783 141.839C637.382 141.456 637.182 140.964 637.182 140.362ZM652.658 154.895C652.658 154.412 652.417 154.034 651.934 153.76C651.46 153.478 650.694 153.227 649.637 153.009C646.118 152.27 644.359 150.775 644.359 148.524C644.359 147.212 644.902 146.118 645.986 145.243C647.08 144.359 648.506 143.917 650.266 143.917C652.143 143.917 653.643 144.359 654.764 145.243C655.894 146.127 656.459 147.275 656.459 148.688H652.508C652.508 148.123 652.325 147.658 651.961 147.294C651.596 146.92 651.027 146.733 650.252 146.733C649.587 146.733 649.072 146.884 648.707 147.184C648.342 147.485 648.16 147.868 648.16 148.333C648.16 148.77 648.365 149.126 648.775 149.399C649.195 149.663 649.896 149.896 650.881 150.096C651.865 150.288 652.695 150.507 653.369 150.753C655.456 151.518 656.5 152.844 656.5 154.731C656.5 156.08 655.921 157.174 654.764 158.012C653.606 158.842 652.111 159.257 650.279 159.257C649.04 159.257 647.937 159.038 646.971 158.6C646.014 158.154 645.262 157.548 644.715 156.782C644.168 156.007 643.895 155.173 643.895 154.28H647.641C647.677 154.982 647.937 155.52 648.42 155.893C648.903 156.267 649.55 156.454 650.361 156.454C651.118 156.454 651.687 156.313 652.07 156.03C652.462 155.738 652.658 155.36 652.658 154.895ZM663.787 140.553V144.19H666.316V147.089H663.787V154.471C663.787 155.018 663.892 155.41 664.102 155.647C664.311 155.884 664.712 156.003 665.305 156.003C665.742 156.003 666.13 155.971 666.467 155.907V158.901C665.692 159.138 664.895 159.257 664.074 159.257C661.303 159.257 659.891 157.858 659.836 155.059V147.089H657.676V144.19H659.836V140.553H663.787ZM677.09 158.983C676.908 158.628 676.775 158.186 676.693 157.657C675.736 158.723 674.492 159.257 672.961 159.257C671.512 159.257 670.309 158.837 669.352 157.999C668.404 157.16 667.93 156.103 667.93 154.827C667.93 153.259 668.508 152.056 669.666 151.218C670.833 150.379 672.514 149.955 674.711 149.946H676.529V149.098C676.529 148.415 676.352 147.868 675.996 147.458C675.65 147.048 675.098 146.843 674.342 146.843C673.676 146.843 673.152 147.002 672.77 147.321C672.396 147.64 672.209 148.078 672.209 148.634H668.258C668.258 147.777 668.522 146.984 669.051 146.255C669.579 145.525 670.327 144.956 671.293 144.546C672.259 144.126 673.344 143.917 674.547 143.917C676.37 143.917 677.814 144.377 678.881 145.298C679.956 146.209 680.494 147.494 680.494 149.153V155.565C680.503 156.969 680.699 158.031 681.082 158.751V158.983H677.09ZM673.822 156.235C674.406 156.235 674.943 156.108 675.436 155.852C675.928 155.588 676.292 155.237 676.529 154.8V152.257H675.053C673.075 152.257 672.022 152.94 671.895 154.307L671.881 154.54C671.881 155.032 672.054 155.438 672.4 155.757C672.747 156.076 673.221 156.235 673.822 156.235ZM687.166 144.19L687.289 145.899C688.346 144.578 689.764 143.917 691.541 143.917C693.109 143.917 694.275 144.377 695.041 145.298C695.807 146.218 696.199 147.594 696.217 149.427V158.983H692.266V149.522C692.266 148.684 692.083 148.078 691.719 147.704C691.354 147.321 690.748 147.13 689.9 147.13C688.788 147.13 687.954 147.604 687.398 148.552V158.983H683.447V144.19H687.166ZM703.955 140.553V144.19H706.484V147.089H703.955V154.471C703.955 155.018 704.06 155.41 704.27 155.647C704.479 155.884 704.88 156.003 705.473 156.003C705.91 156.003 706.297 155.971 706.635 155.907V158.901C705.86 159.138 705.062 159.257 704.242 159.257C701.471 159.257 700.059 157.858 700.004 155.059V147.089H697.844V144.19H700.004V140.553H703.955Z" fill="white"/>
<g clip-path="url(#clip0)">
<path d="M680.223 0.918945C679.345 0.918945 678.503 1.23298 677.882 1.79198C677.261 2.35097 676.912 3.10912 676.912 3.89966C676.912 4.69019 677.261 5.44835 677.882 6.00734C678.503 6.56633 679.345 6.88037 680.223 6.88037H690.154V23.2743H686.844C685.966 23.2743 685.124 23.5883 684.503 24.1473C683.882 24.7063 683.533 25.4645 683.533 26.255C683.533 27.0455 683.882 27.8037 684.503 28.3627C685.124 28.9217 685.966 29.2357 686.844 29.2357H690.154V45.6296H680.223C679.345 45.6296 678.503 45.9437 677.882 46.5027C677.261 47.0617 676.912 47.8198 676.912 48.6103C676.912 49.4009 677.261 50.159 677.882 50.718C678.503 51.277 679.345 51.5911 680.223 51.5911H690.154V67.985H686.844C685.966 67.985 685.124 68.299 684.503 68.858C683.882 69.417 683.533 70.1752 683.533 70.9657C683.533 71.7562 683.882 72.5144 684.503 73.0734C685.124 73.6324 685.966 73.9464 686.844 73.9464H690.154V90.3403H680.223C679.345 90.3403 678.503 90.6544 677.882 91.2133C677.261 91.7723 676.912 92.5305 676.912 93.321C676.912 94.1116 677.261 94.8697 677.882 95.4287C678.503 95.9877 679.345 96.3017 680.223 96.3017H693.464C694.342 96.3017 695.184 95.9877 695.805 95.4287C696.426 94.8697 696.775 94.1116 696.775 93.321V3.89966C696.775 3.10912 696.426 2.35097 695.805 1.79198C695.184 1.23298 694.342 0.918945 693.464 0.918945L680.223 0.918945ZM637.188 9.86108L639.598 7.81631C639.288 7.52039 638.915 7.2846 638.5 7.12342C638.086 6.96225 637.639 6.87911 637.188 6.87911C636.736 6.87911 636.29 6.96225 635.875 7.12342C635.461 7.2846 635.087 7.52039 634.778 7.81631L634.765 7.82824L634.725 7.86997L634.579 8.00708L634.05 8.53168C631.122 11.4571 628.309 14.4734 625.615 17.5752C620.523 23.4352 614.267 31.4355 609.824 39.7934C606.52 46.0112 604.084 52.676 604.084 58.9415C604.084 76.1164 618.729 90.3403 637.188 90.3403C655.647 90.3403 670.292 76.1164 670.292 58.9415C670.292 52.682 667.855 46.0112 664.551 39.7934C660.109 31.4355 653.852 23.4352 648.761 17.5752C645.905 14.2876 642.914 11.0961 639.796 8.00708L639.651 7.86997L639.611 7.82824L639.598 7.82228L637.188 9.86108ZM637.188 9.86108L634.778 7.81631L637.188 9.86108ZM637.082 14.4275L637.188 14.3143L637.294 14.4275C638.883 16.061 641.081 18.4038 643.544 21.2474C647.589 25.9033 652.283 31.8349 656.13 38.1004H618.252C622.092 31.8349 626.793 25.9033 630.832 21.2474C633.301 18.4038 635.506 16.061 637.089 14.4275H637.082ZM610.705 58.9415C610.705 54.4406 612.32 49.3317 614.929 44.0618H659.447C662.062 49.3317 663.671 54.4406 663.671 58.9415C663.671 73.1535 651.634 84.3789 637.188 84.3789C622.741 84.3789 610.705 73.1535 610.705 58.9415Z" fill="white"/>
</g>
<path d="M318.982 275.791C318.8 275.436 318.668 274.993 318.586 274.465C317.629 275.531 316.385 276.064 314.853 276.064C313.404 276.064 312.201 275.645 311.244 274.807C310.296 273.968 309.822 272.911 309.822 271.635C309.822 270.067 310.401 268.864 311.559 268.025C312.725 267.187 314.407 266.763 316.603 266.754H318.422V265.906C318.422 265.223 318.244 264.676 317.889 264.266C317.542 263.855 316.991 263.65 316.234 263.65C315.569 263.65 315.045 263.81 314.662 264.129C314.288 264.448 314.102 264.885 314.102 265.441H310.15C310.15 264.585 310.415 263.792 310.943 263.062C311.472 262.333 312.219 261.764 313.186 261.354C314.152 260.934 315.236 260.725 316.439 260.725C318.262 260.725 319.707 261.185 320.773 262.105C321.849 263.017 322.387 264.302 322.387 265.961V272.373C322.396 273.777 322.592 274.839 322.975 275.559V275.791H318.982ZM315.715 273.043C316.298 273.043 316.836 272.915 317.328 272.66C317.82 272.396 318.185 272.045 318.422 271.607V269.064H316.945C314.967 269.064 313.915 269.748 313.787 271.115L313.773 271.348C313.773 271.84 313.947 272.245 314.293 272.564C314.639 272.883 315.113 273.043 315.715 273.043ZM334.281 274.287C333.306 275.472 331.957 276.064 330.234 276.064C328.648 276.064 327.436 275.609 326.598 274.697C325.768 273.786 325.344 272.451 325.326 270.691V260.998H329.277V270.555C329.277 272.095 329.979 272.865 331.383 272.865C332.723 272.865 333.643 272.4 334.145 271.471V260.998H338.109V275.791H334.391L334.281 274.287ZM345.82 257.361V260.998H348.35V263.896H345.82V271.279C345.82 271.826 345.925 272.218 346.135 272.455C346.344 272.692 346.745 272.811 347.338 272.811C347.775 272.811 348.163 272.779 348.5 272.715V275.709C347.725 275.946 346.928 276.064 346.107 276.064C343.337 276.064 341.924 274.665 341.869 271.867V263.896H339.709V260.998H341.869V257.361H345.82ZM349.525 268.258C349.525 266.79 349.808 265.482 350.373 264.334C350.938 263.186 351.749 262.297 352.807 261.668C353.873 261.039 355.108 260.725 356.512 260.725C358.508 260.725 360.135 261.335 361.393 262.557C362.659 263.778 363.366 265.437 363.512 267.533L363.539 268.545C363.539 270.814 362.906 272.637 361.639 274.014C360.372 275.381 358.672 276.064 356.539 276.064C354.406 276.064 352.702 275.381 351.426 274.014C350.159 272.646 349.525 270.787 349.525 268.436V268.258ZM353.477 268.545C353.477 269.949 353.741 271.024 354.27 271.771C354.798 272.51 355.555 272.879 356.539 272.879C357.496 272.879 358.243 272.514 358.781 271.785C359.319 271.047 359.588 269.871 359.588 268.258C359.588 266.882 359.319 265.815 358.781 265.059C358.243 264.302 357.487 263.924 356.512 263.924C355.546 263.924 354.798 264.302 354.27 265.059C353.741 265.806 353.477 266.968 353.477 268.545ZM369.678 260.998L369.801 262.652C370.849 261.367 372.266 260.725 374.053 260.725C375.958 260.725 377.266 261.477 377.977 262.98C379.016 261.477 380.497 260.725 382.42 260.725C384.024 260.725 385.218 261.194 386.002 262.133C386.786 263.062 387.178 264.466 387.178 266.344V275.791H383.213V266.357C383.213 265.519 383.049 264.908 382.721 264.525C382.393 264.133 381.814 263.938 380.984 263.938C379.799 263.938 378.979 264.503 378.523 265.633L378.537 275.791H374.586V266.371C374.586 265.514 374.417 264.895 374.08 264.512C373.743 264.129 373.169 263.938 372.357 263.938C371.236 263.938 370.425 264.402 369.924 265.332V275.791H365.973V260.998H369.678ZM398.799 275.791C398.617 275.436 398.484 274.993 398.402 274.465C397.445 275.531 396.201 276.064 394.67 276.064C393.221 276.064 392.018 275.645 391.061 274.807C390.113 273.968 389.639 272.911 389.639 271.635C389.639 270.067 390.217 268.864 391.375 268.025C392.542 267.187 394.223 266.763 396.42 266.754H398.238V265.906C398.238 265.223 398.061 264.676 397.705 264.266C397.359 263.855 396.807 263.65 396.051 263.65C395.385 263.65 394.861 263.81 394.478 264.129C394.105 264.448 393.918 264.885 393.918 265.441H389.967C389.967 264.585 390.231 263.792 390.76 263.062C391.288 262.333 392.036 261.764 393.002 261.354C393.968 260.934 395.053 260.725 396.256 260.725C398.079 260.725 399.523 261.185 400.59 262.105C401.665 263.017 402.203 264.302 402.203 265.961V272.373C402.212 273.777 402.408 274.839 402.791 275.559V275.791H398.799ZM395.531 273.043C396.115 273.043 396.652 272.915 397.145 272.66C397.637 272.396 398.001 272.045 398.238 271.607V269.064H396.762C394.784 269.064 393.731 269.748 393.603 271.115L393.59 271.348C393.59 271.84 393.763 272.245 394.109 272.564C394.456 272.883 394.93 273.043 395.531 273.043ZM409.969 257.361V260.998H412.498V263.896H409.969V271.279C409.969 271.826 410.074 272.218 410.283 272.455C410.493 272.692 410.894 272.811 411.486 272.811C411.924 272.811 412.311 272.779 412.648 272.715V275.709C411.874 275.946 411.076 276.064 410.256 276.064C407.485 276.064 406.072 274.665 406.018 271.867V263.896H403.857V260.998H406.018V257.361H409.969ZM421.508 276.064C419.339 276.064 417.57 275.399 416.203 274.068C414.845 272.738 414.166 270.965 414.166 268.75V268.367C414.166 266.882 414.453 265.555 415.027 264.389C415.602 263.213 416.413 262.311 417.461 261.682C418.518 261.044 419.721 260.725 421.07 260.725C423.094 260.725 424.684 261.363 425.842 262.639C427.008 263.915 427.592 265.724 427.592 268.066V269.68H418.172C418.299 270.646 418.682 271.421 419.32 272.004C419.967 272.587 420.783 272.879 421.768 272.879C423.29 272.879 424.479 272.327 425.336 271.225L427.277 273.398C426.685 274.237 425.883 274.893 424.871 275.367C423.859 275.832 422.738 276.064 421.508 276.064ZM421.057 263.924C420.273 263.924 419.635 264.188 419.143 264.717C418.659 265.245 418.35 266.002 418.213 266.986H423.709V266.672C423.691 265.797 423.454 265.122 422.998 264.648C422.542 264.165 421.895 263.924 421.057 263.924ZM429.232 268.285C429.232 265.979 429.747 264.143 430.777 262.775C431.816 261.408 433.234 260.725 435.029 260.725C436.469 260.725 437.659 261.262 438.598 262.338V254.791H442.562V275.791H438.994L438.803 274.219C437.818 275.449 436.551 276.064 435.002 276.064C433.261 276.064 431.862 275.381 430.805 274.014C429.756 272.637 429.232 270.728 429.232 268.285ZM433.184 268.572C433.184 269.958 433.425 271.02 433.908 271.758C434.391 272.496 435.093 272.865 436.014 272.865C437.235 272.865 438.096 272.35 438.598 271.32V265.482C438.105 264.452 437.253 263.938 436.041 263.938C434.136 263.938 433.184 265.482 433.184 268.572ZM283.4 293.998L283.523 295.652C284.572 294.367 285.989 293.725 287.775 293.725C289.68 293.725 290.988 294.477 291.699 295.98C292.738 294.477 294.219 293.725 296.143 293.725C297.747 293.725 298.941 294.194 299.725 295.133C300.508 296.062 300.9 297.466 300.9 299.344V308.791H296.936V299.357C296.936 298.519 296.771 297.908 296.443 297.525C296.115 297.133 295.536 296.938 294.707 296.938C293.522 296.938 292.702 297.503 292.246 298.633L292.26 308.791H288.309V299.371C288.309 298.514 288.14 297.895 287.803 297.512C287.465 297.129 286.891 296.938 286.08 296.938C284.959 296.938 284.148 297.402 283.646 298.332V308.791H279.695V293.998H283.4ZM303.334 301.258C303.334 299.79 303.617 298.482 304.182 297.334C304.747 296.186 305.558 295.297 306.615 294.668C307.682 294.039 308.917 293.725 310.32 293.725C312.316 293.725 313.943 294.335 315.201 295.557C316.468 296.778 317.174 298.437 317.32 300.533L317.348 301.545C317.348 303.814 316.714 305.637 315.447 307.014C314.18 308.381 312.48 309.064 310.348 309.064C308.215 309.064 306.51 308.381 305.234 307.014C303.967 305.646 303.334 303.787 303.334 301.436V301.258ZM307.285 301.545C307.285 302.949 307.549 304.024 308.078 304.771C308.607 305.51 309.363 305.879 310.348 305.879C311.305 305.879 312.052 305.514 312.59 304.785C313.128 304.047 313.396 302.871 313.396 301.258C313.396 299.882 313.128 298.815 312.59 298.059C312.052 297.302 311.296 296.924 310.32 296.924C309.354 296.924 308.607 297.302 308.078 298.059C307.549 298.806 307.285 299.968 307.285 301.545ZM319.166 301.285C319.166 298.979 319.681 297.143 320.711 295.775C321.75 294.408 323.167 293.725 324.963 293.725C326.403 293.725 327.592 294.262 328.531 295.338V287.791H332.496V308.791H328.928L328.736 307.219C327.752 308.449 326.485 309.064 324.936 309.064C323.195 309.064 321.796 308.381 320.738 307.014C319.69 305.637 319.166 303.728 319.166 301.285ZM323.117 301.572C323.117 302.958 323.359 304.02 323.842 304.758C324.325 305.496 325.027 305.865 325.947 305.865C327.169 305.865 328.03 305.35 328.531 304.32V298.482C328.039 297.452 327.187 296.938 325.975 296.938C324.07 296.938 323.117 298.482 323.117 301.572ZM344.418 307.287C343.443 308.472 342.094 309.064 340.371 309.064C338.785 309.064 337.573 308.609 336.734 307.697C335.905 306.786 335.481 305.451 335.463 303.691V293.998H339.414V303.555C339.414 305.095 340.116 305.865 341.52 305.865C342.859 305.865 343.78 305.4 344.281 304.471V293.998H348.246V308.791H344.527L344.418 307.287ZM355.396 308.791H351.432V287.791H355.396V308.791ZM367.236 308.791C367.054 308.436 366.922 307.993 366.84 307.465C365.883 308.531 364.639 309.064 363.107 309.064C361.658 309.064 360.455 308.645 359.498 307.807C358.55 306.968 358.076 305.911 358.076 304.635C358.076 303.067 358.655 301.864 359.812 301.025C360.979 300.187 362.661 299.763 364.857 299.754H366.676V298.906C366.676 298.223 366.498 297.676 366.143 297.266C365.796 296.855 365.245 296.65 364.488 296.65C363.823 296.65 363.299 296.81 362.916 297.129C362.542 297.448 362.355 297.885 362.355 298.441H358.404C358.404 297.585 358.669 296.792 359.197 296.062C359.726 295.333 360.473 294.764 361.439 294.354C362.406 293.934 363.49 293.725 364.693 293.725C366.516 293.725 367.961 294.185 369.027 295.105C370.103 296.017 370.641 297.302 370.641 298.961V305.373C370.65 306.777 370.846 307.839 371.228 308.559V308.791H367.236ZM363.969 306.043C364.552 306.043 365.09 305.915 365.582 305.66C366.074 305.396 366.439 305.045 366.676 304.607V302.064H365.199C363.221 302.064 362.169 302.748 362.041 304.115L362.027 304.348C362.027 304.84 362.2 305.245 362.547 305.564C362.893 305.883 363.367 306.043 363.969 306.043ZM381.988 297.703C381.45 297.63 380.977 297.594 380.566 297.594C379.072 297.594 378.092 298.1 377.627 299.111V308.791H373.676V293.998H377.408L377.518 295.762C378.311 294.404 379.409 293.725 380.812 293.725C381.25 293.725 381.66 293.784 382.043 293.902L381.988 297.703ZM390.26 301.285C390.26 298.979 390.775 297.143 391.805 295.775C392.844 294.408 394.261 293.725 396.057 293.725C397.497 293.725 398.686 294.262 399.625 295.338V287.791H403.59V308.791H400.021L399.83 307.219C398.846 308.449 397.579 309.064 396.029 309.064C394.288 309.064 392.889 308.381 391.832 307.014C390.784 305.637 390.26 303.728 390.26 301.285ZM394.211 301.572C394.211 302.958 394.452 304.02 394.936 304.758C395.419 305.496 396.12 305.865 397.041 305.865C398.262 305.865 399.124 305.35 399.625 304.32V298.482C399.133 297.452 398.281 296.938 397.068 296.938C395.163 296.938 394.211 298.482 394.211 301.572ZM413.461 309.064C411.292 309.064 409.523 308.399 408.156 307.068C406.798 305.738 406.119 303.965 406.119 301.75V301.367C406.119 299.882 406.406 298.555 406.98 297.389C407.555 296.213 408.366 295.311 409.414 294.682C410.471 294.044 411.674 293.725 413.023 293.725C415.047 293.725 416.637 294.363 417.795 295.639C418.962 296.915 419.545 298.724 419.545 301.066V302.68H410.125C410.253 303.646 410.635 304.421 411.273 305.004C411.921 305.587 412.736 305.879 413.721 305.879C415.243 305.879 416.432 305.327 417.289 304.225L419.23 306.398C418.638 307.237 417.836 307.893 416.824 308.367C415.812 308.832 414.691 309.064 413.461 309.064ZM413.01 296.924C412.226 296.924 411.588 297.188 411.096 297.717C410.613 298.245 410.303 299.002 410.166 299.986H415.662V299.672C415.644 298.797 415.407 298.122 414.951 297.648C414.495 297.165 413.848 296.924 413.01 296.924ZM429.812 304.703C429.812 304.22 429.571 303.842 429.088 303.568C428.614 303.286 427.848 303.035 426.791 302.816C423.273 302.078 421.514 300.583 421.514 298.332C421.514 297.02 422.056 295.926 423.141 295.051C424.234 294.167 425.661 293.725 427.42 293.725C429.297 293.725 430.797 294.167 431.918 295.051C433.048 295.935 433.613 297.083 433.613 298.496H429.662C429.662 297.931 429.48 297.466 429.115 297.102C428.751 296.728 428.181 296.541 427.406 296.541C426.741 296.541 426.226 296.691 425.861 296.992C425.497 297.293 425.314 297.676 425.314 298.141C425.314 298.578 425.52 298.934 425.93 299.207C426.349 299.471 427.051 299.704 428.035 299.904C429.02 300.096 429.849 300.314 430.523 300.561C432.611 301.326 433.654 302.652 433.654 304.539C433.654 305.888 433.075 306.982 431.918 307.82C430.76 308.65 429.266 309.064 427.434 309.064C426.194 309.064 425.091 308.846 424.125 308.408C423.168 307.962 422.416 307.355 421.869 306.59C421.322 305.815 421.049 304.981 421.049 304.088H424.795C424.831 304.79 425.091 305.327 425.574 305.701C426.057 306.075 426.704 306.262 427.516 306.262C428.272 306.262 428.842 306.12 429.225 305.838C429.617 305.546 429.812 305.168 429.812 304.703ZM440.381 308.791H436.416V293.998H440.381V308.791ZM436.184 290.17C436.184 289.577 436.38 289.09 436.771 288.707C437.172 288.324 437.715 288.133 438.398 288.133C439.073 288.133 439.611 288.324 440.012 288.707C440.413 289.09 440.613 289.577 440.613 290.17C440.613 290.771 440.408 291.264 439.998 291.646C439.597 292.029 439.064 292.221 438.398 292.221C437.733 292.221 437.195 292.029 436.785 291.646C436.384 291.264 436.184 290.771 436.184 290.17ZM443.074 301.285C443.074 299.016 443.612 297.188 444.687 295.803C445.772 294.417 447.23 293.725 449.062 293.725C450.685 293.725 451.947 294.281 452.85 295.393L453.014 293.998H456.596V308.299C456.596 309.593 456.299 310.719 455.707 311.676C455.124 312.633 454.299 313.362 453.232 313.863C452.166 314.365 450.917 314.615 449.486 314.615C448.402 314.615 447.344 314.396 446.314 313.959C445.284 313.531 444.505 312.975 443.977 312.291L445.727 309.885C446.711 310.988 447.905 311.539 449.309 311.539C450.357 311.539 451.172 311.257 451.756 310.691C452.339 310.135 452.631 309.342 452.631 308.312V307.52C451.719 308.549 450.521 309.064 449.035 309.064C447.258 309.064 445.818 308.372 444.715 306.986C443.621 305.592 443.074 303.746 443.074 301.449V301.285ZM447.025 301.572C447.025 302.912 447.294 303.965 447.832 304.73C448.37 305.487 449.108 305.865 450.047 305.865C451.25 305.865 452.111 305.414 452.631 304.512V298.291C452.102 297.389 451.25 296.938 450.074 296.938C449.126 296.938 448.379 297.325 447.832 298.1C447.294 298.874 447.025 300.032 447.025 301.572ZM463.281 293.998L463.404 295.707C464.462 294.385 465.879 293.725 467.656 293.725C469.224 293.725 470.391 294.185 471.156 295.105C471.922 296.026 472.314 297.402 472.332 299.234V308.791H468.381V299.33C468.381 298.492 468.199 297.885 467.834 297.512C467.469 297.129 466.863 296.938 466.016 296.938C464.904 296.938 464.07 297.411 463.514 298.359V308.791H459.562V293.998H463.281Z" fill="white"/>
<path d="M411.832 212.873H402.205C401.492 215.022 400.363 216.988 398.817 218.769L403.007 226.417C403.364 227.154 403.438 227.891 403.23 228.628C403.022 229.365 402.621 229.948 402.027 230.378L397.302 233.234C396.648 233.603 395.965 233.695 395.252 233.511C394.538 233.327 394.004 232.866 393.647 232.129L389.368 224.39C388.18 224.635 387.11 224.758 386.159 224.758C385.208 224.758 384.138 224.635 382.95 224.39L378.671 232.129C378.314 232.866 377.779 233.327 377.066 233.511C376.353 233.695 375.67 233.603 375.016 233.234L370.291 230.378C369.697 229.948 369.296 229.365 369.088 228.628C368.88 227.891 368.954 227.154 369.311 226.417L373.5 218.769C371.955 216.988 370.826 215.022 370.113 212.873H360.485C359.713 212.873 359.044 212.596 358.48 212.043C357.915 211.491 357.633 210.784 357.633 209.924V204.028C357.633 203.229 357.915 202.538 358.48 201.955C359.044 201.371 359.713 201.079 360.485 201.079H370.113C370.826 198.991 371.955 197.056 373.5 195.275L369.311 187.628C368.954 186.891 368.88 186.154 369.088 185.416C369.296 184.679 369.697 184.096 370.291 183.666L375.016 180.81C375.67 180.441 376.353 180.349 377.066 180.533C377.779 180.718 378.314 181.148 378.671 181.823L382.95 189.655C384.138 189.409 385.208 189.286 386.159 189.286C387.11 189.286 388.18 189.409 389.368 189.655L393.647 181.823C394.004 181.148 394.538 180.718 395.252 180.533C395.965 180.349 396.648 180.441 397.302 180.81L402.027 183.666C402.621 184.096 403.022 184.679 403.23 185.416C403.438 186.154 403.364 186.891 403.007 187.628L398.817 195.275C400.363 197.056 401.492 198.991 402.205 201.079H411.832C412.605 201.079 413.274 201.371 413.838 201.955C414.403 202.538 414.685 203.229 414.685 204.028V209.924C414.685 210.784 414.403 211.491 413.838 212.043C413.274 212.596 412.605 212.873 411.832 212.873ZM386.159 201.079C384.554 201.079 383.202 201.663 382.103 202.83C381.003 203.997 380.454 205.394 380.454 207.022C380.454 208.65 381.003 210.032 382.103 211.168C383.202 212.305 384.554 212.873 386.159 212.873C387.764 212.873 389.116 212.305 390.215 211.168C391.314 210.032 391.864 208.65 391.864 207.022C391.864 205.394 391.314 203.997 390.215 202.83C389.116 201.663 387.764 201.079 386.159 201.079ZM377.601 177.493H367.974C367.26 179.643 366.131 181.608 364.586 183.39L368.776 191.037C369.132 191.712 369.207 192.434 368.999 193.202C368.791 193.97 368.39 194.569 367.795 194.999L363.071 197.855C362.417 198.223 361.733 198.3 361.02 198.085C360.307 197.87 359.772 197.425 359.416 196.749L355.137 189.01C354.008 189.194 352.938 189.286 351.928 189.286C350.917 189.286 349.848 189.194 348.718 189.01L344.439 196.749C344.083 197.425 343.548 197.87 342.835 198.085C342.122 198.3 341.438 198.223 340.785 197.855L336.06 194.999C335.466 194.569 335.065 193.97 334.857 193.202C334.649 192.434 334.723 191.712 335.079 191.037L339.269 183.39C337.724 181.608 336.595 179.643 335.882 177.493H326.254C325.482 177.493 324.813 177.216 324.248 176.664C323.684 176.111 323.401 175.405 323.401 174.545V168.648C323.401 167.849 323.684 167.158 324.248 166.575C324.813 165.991 325.482 165.7 326.254 165.7H335.882C336.595 163.611 337.724 161.646 339.269 159.803L335.079 152.156C334.723 151.48 334.649 150.758 334.857 149.991C335.065 149.223 335.466 148.655 336.06 148.286L340.785 145.43C341.438 145 342.122 144.893 342.835 145.107C343.548 145.322 344.083 145.768 344.439 146.443L348.718 154.275C349.907 154.029 350.977 153.906 351.928 153.906C352.878 153.906 353.948 154.029 355.137 154.275L359.416 146.443C359.772 145.768 360.307 145.322 361.02 145.107C361.733 144.893 362.417 145 363.071 145.43L367.795 148.286C368.39 148.655 368.791 149.223 368.999 149.991C369.207 150.758 369.132 151.48 368.776 152.156L364.586 159.803C366.131 161.646 367.26 163.611 367.974 165.7H377.601C378.374 165.7 379.042 165.991 379.607 166.575C380.171 167.158 380.454 167.849 380.454 168.648V174.545C380.454 175.405 380.171 176.111 379.607 176.664C379.042 177.216 378.374 177.493 377.601 177.493ZM351.928 165.7C350.323 165.7 348.971 166.283 347.872 167.45C346.772 168.617 346.222 170.015 346.222 171.642C346.222 173.27 346.772 174.652 347.872 175.788C348.971 176.925 350.323 177.493 351.928 177.493C353.532 177.493 354.884 176.925 355.984 175.788C357.083 174.652 357.633 173.27 357.633 171.642C357.633 170.015 357.083 168.617 355.984 167.45C354.884 166.283 353.532 165.7 351.928 165.7Z" fill="white"/>
<path d="M1233.81 45.0229C1236.94 42.4075 1239.36 39.3094 1240.9 35.9229C1242.45 32.5364 1243.09 28.9344 1242.79 25.3428C1242.49 21.7512 1241.25 18.2474 1239.15 15.0509C1237.06 11.8545 1234.15 9.03428 1230.61 6.76717C1227.06 4.50005 1222.97 2.83486 1218.57 1.87598C1214.18 0.917099 1209.58 0.685191 1205.06 1.19479C1200.55 1.7044 1196.22 2.94453 1192.34 4.83745C1188.46 6.73037 1185.12 9.23528 1182.53 12.1952C1181.27 9.5743 1179.24 7.23048 1176.59 5.36219C1173.95 3.4939 1170.77 2.15615 1167.33 1.46224C1163.9 0.768333 1160.3 0.738693 1156.84 1.37583C1153.39 2.01297 1150.17 3.29813 1147.48 5.12247C1144.79 6.94681 1142.69 9.25661 1141.37 11.8563C1140.05 14.4559 1139.54 17.2689 1139.88 20.0569C1140.23 22.8449 1141.42 25.5259 1143.36 27.8729C1145.3 30.2198 1147.92 32.1636 1151.02 33.5396C1148.18 35.0467 1145.76 36.9836 1143.88 39.2378C1142 41.4919 1140.71 44.0183 1140.08 46.6697C1139.46 49.3211 1139.5 52.0448 1140.22 54.6821C1140.94 57.3193 1142.31 59.8176 1144.26 62.0315C1146.22 64.2454 1148.71 66.1306 1151.59 67.5776C1154.47 69.0245 1157.69 70.0042 1161.06 70.4596C1164.43 70.9151 1167.88 70.8371 1171.21 70.2304C1174.54 69.6237 1177.68 68.5003 1180.46 66.9255C1181.11 71.3448 1183.89 75.3983 1188.21 78.256C1192.53 81.1137 1198.07 82.5595 1203.7 82.2971C1209.32 82.0348 1214.61 80.0843 1218.48 76.845C1222.34 73.6057 1224.49 69.3227 1224.48 64.8731C1224.48 64.5184 1224.44 64.1754 1224.42 63.8265C1226.01 64.4398 1227.75 64.7865 1229.51 64.8448C1231.28 64.9031 1233.05 64.6718 1234.7 64.1654C1236.35 63.6589 1237.85 62.8884 1239.11 61.9021C1240.36 60.9159 1241.35 59.7352 1242 58.4344C1242.65 57.1336 1242.95 55.7408 1242.88 54.3435C1242.82 52.9462 1242.39 51.5746 1241.62 50.315C1240.85 49.0554 1239.76 47.9351 1238.42 47.0243C1237.07 46.1136 1235.5 45.4322 1233.81 45.0229V45.0229ZM1209.75 6.72969C1214.85 6.72969 1219.84 7.92321 1224.08 10.1593C1228.31 12.3954 1231.62 15.5737 1233.57 19.2922C1235.52 23.0107 1236.03 27.1025 1235.04 31.05C1234.04 34.9975 1231.59 38.6236 1227.98 41.4696C1224.38 44.3157 1219.78 46.2538 1214.78 47.039C1209.78 47.8243 1204.6 47.4213 1199.89 45.881C1195.18 44.3407 1191.15 41.7324 1188.32 38.3858C1185.49 35.0393 1183.97 31.1048 1183.97 27.0799C1183.98 21.6846 1186.7 16.512 1191.53 12.6969C1196.37 8.88185 1202.92 6.73585 1209.75 6.72969V6.72969ZM1161.88 6.72969C1164.79 6.72969 1167.64 7.4117 1170.06 8.68948C1172.48 9.96725 1174.37 11.7834 1175.49 13.9083C1176.6 16.0331 1176.89 18.3713 1176.32 20.627C1175.76 22.8828 1174.35 24.9548 1172.29 26.5811C1170.23 28.2074 1167.61 29.3149 1164.75 29.7636C1161.89 30.2123 1158.93 29.982 1156.24 29.1019C1153.55 28.2217 1151.25 26.7312 1149.63 24.8189C1148.01 22.9066 1147.15 20.6583 1147.15 18.3584C1147.15 15.2754 1148.7 12.3199 1151.47 10.1399C1154.23 7.95993 1157.97 6.73354 1161.88 6.72969V6.72969ZM1202.39 76.5018C1199.47 76.5018 1196.63 75.8197 1194.2 74.542C1191.78 73.2642 1189.89 71.448 1188.78 69.3232C1187.66 67.1983 1187.37 64.8602 1187.94 62.6044C1188.51 60.3487 1189.91 58.2767 1191.97 56.6504C1194.03 55.0241 1196.66 53.9165 1199.51 53.4678C1202.37 53.0191 1205.33 53.2494 1208.02 54.1296C1210.72 55.0097 1213.02 56.5002 1214.64 58.4125C1216.25 60.3249 1217.12 62.5731 1217.12 64.8731C1217.11 67.956 1215.56 70.9116 1212.8 73.0915C1210.04 75.2715 1206.29 76.4979 1202.39 76.5018V76.5018Z" fill="white"/>
<path d="M1130.19 123.878H1123L1121.63 127.98H1117.27L1124.68 108.074H1128.48L1135.93 127.98H1131.57L1130.19 123.878ZM1124.11 120.556H1129.09L1126.58 113.105L1124.11 120.556ZM1140.51 113.187L1140.64 114.896C1141.7 113.574 1143.11 112.914 1144.89 112.914C1146.46 112.914 1147.62 113.374 1148.39 114.294C1149.16 115.215 1149.55 116.591 1149.57 118.423V127.98H1145.61V118.519C1145.61 117.681 1145.43 117.074 1145.07 116.701C1144.7 116.318 1144.1 116.126 1143.25 116.126C1142.14 116.126 1141.3 116.6 1140.75 117.548V127.98H1136.8V113.187H1140.51ZM1157.3 109.55V113.187H1159.83V116.085H1157.3V123.468C1157.3 124.015 1157.41 124.407 1157.62 124.644C1157.83 124.881 1158.23 125 1158.82 125C1159.26 125 1159.65 124.968 1159.98 124.904V127.898C1159.21 128.135 1158.41 128.253 1157.59 128.253C1154.82 128.253 1153.41 126.854 1153.35 124.056V116.085H1151.19V113.187H1153.35V109.55H1157.3ZM1166.2 127.98H1162.24V113.187H1166.2V127.98ZM1162.01 109.359C1162.01 108.766 1162.2 108.279 1162.6 107.896C1163 107.513 1163.54 107.322 1164.22 107.322C1164.9 107.322 1165.43 107.513 1165.84 107.896C1166.24 108.279 1166.44 108.766 1166.44 109.359C1166.44 109.96 1166.23 110.453 1165.82 110.835C1165.42 111.218 1164.89 111.41 1164.22 111.41C1163.56 111.41 1163.02 111.218 1162.61 110.835C1162.21 110.453 1162.01 109.96 1162.01 109.359ZM1177.16 121.048H1169.46V117.863H1177.16V121.048ZM1180.59 127.98V108.074H1187.56C1189.98 108.074 1191.81 108.539 1193.06 109.468C1194.3 110.389 1194.93 111.742 1194.93 113.529C1194.93 114.504 1194.68 115.365 1194.18 116.113C1193.68 116.851 1192.98 117.393 1192.09 117.74C1193.11 117.995 1193.91 118.51 1194.49 119.285C1195.08 120.059 1195.38 121.007 1195.38 122.128C1195.38 124.042 1194.77 125.492 1193.55 126.476C1192.33 127.46 1190.59 127.962 1188.33 127.98H1180.59ZM1184.69 119.312V124.685H1188.2C1189.17 124.685 1189.92 124.457 1190.46 124.001C1191.01 123.537 1191.28 122.899 1191.28 122.087C1191.28 120.264 1190.34 119.339 1188.45 119.312H1184.69ZM1184.69 116.414H1187.72C1189.79 116.377 1190.83 115.552 1190.83 113.939C1190.83 113.037 1190.56 112.389 1190.03 111.998C1189.51 111.597 1188.69 111.396 1187.56 111.396H1184.69V116.414ZM1207.07 126.476C1206.09 127.661 1204.75 128.253 1203.02 128.253C1201.44 128.253 1200.22 127.798 1199.39 126.886C1198.56 125.975 1198.13 124.639 1198.11 122.88V113.187H1202.07V122.744C1202.07 124.284 1202.77 125.054 1204.17 125.054C1205.51 125.054 1206.43 124.589 1206.93 123.66V113.187H1210.9V127.98H1207.18L1207.07 126.476ZM1227.21 120.72C1227.21 123.09 1226.7 124.94 1225.69 126.271C1224.68 127.593 1223.27 128.253 1221.45 128.253C1219.85 128.253 1218.57 127.638 1217.61 126.408L1217.43 127.98H1213.88V106.98H1217.83V114.513C1218.74 113.447 1219.94 112.914 1221.43 112.914C1223.23 112.914 1224.64 113.579 1225.66 114.91C1226.69 116.231 1227.21 118.095 1227.21 120.501V120.72ZM1223.26 120.433C1223.26 118.938 1223.02 117.849 1222.55 117.166C1222.07 116.473 1221.37 116.126 1220.43 116.126C1219.17 116.126 1218.3 116.641 1217.83 117.671V123.509C1218.31 124.548 1219.19 125.068 1220.45 125.068C1221.73 125.068 1222.57 124.439 1222.97 123.181C1223.16 122.58 1223.26 121.664 1223.26 120.433ZM1242.99 120.72C1242.99 123.09 1242.48 124.94 1241.47 126.271C1240.46 127.593 1239.04 128.253 1237.23 128.253C1235.63 128.253 1234.35 127.638 1233.39 126.408L1233.21 127.98H1229.66V106.98H1233.61V114.513C1234.52 113.447 1235.72 112.914 1237.2 112.914C1239.01 112.914 1240.42 113.579 1241.44 114.91C1242.47 116.231 1242.99 118.095 1242.99 120.501V120.72ZM1239.03 120.433C1239.03 118.938 1238.8 117.849 1238.32 117.166C1237.85 116.473 1237.14 116.126 1236.2 116.126C1234.95 116.126 1234.08 116.641 1233.61 117.671V123.509C1234.09 124.548 1234.96 125.068 1236.23 125.068C1237.51 125.068 1238.35 124.439 1238.75 123.181C1238.94 122.58 1239.03 121.664 1239.03 120.433ZM1249.6 127.98H1245.64V106.98H1249.6V127.98ZM1259.68 128.253C1257.51 128.253 1255.74 127.588 1254.37 126.257C1253.02 124.927 1252.34 123.154 1252.34 120.939V120.556C1252.34 119.07 1252.62 117.744 1253.2 116.578C1253.77 115.402 1254.58 114.5 1255.63 113.871C1256.69 113.233 1257.89 112.914 1259.24 112.914C1261.26 112.914 1262.86 113.552 1264.01 114.828C1265.18 116.104 1265.76 117.913 1265.76 120.255V121.869H1256.34C1256.47 122.835 1256.85 123.61 1257.49 124.193C1258.14 124.776 1258.95 125.068 1259.94 125.068C1261.46 125.068 1262.65 124.516 1263.51 123.414L1265.45 125.587C1264.86 126.426 1264.05 127.082 1263.04 127.556C1262.03 128.021 1260.91 128.253 1259.68 128.253ZM1259.23 116.113C1258.44 116.113 1257.81 116.377 1257.31 116.906C1256.83 117.434 1256.52 118.191 1256.38 119.175H1261.88V118.861C1261.86 117.986 1261.62 117.311 1261.17 116.837C1260.71 116.354 1260.07 116.113 1259.23 116.113ZM1134.92 144.396H1128.82V160.98H1124.72V144.396H1118.7V141.074H1134.92V144.396ZM1142.59 161.253C1140.42 161.253 1138.65 160.588 1137.28 159.257C1135.92 157.927 1135.24 156.154 1135.24 153.939V153.556C1135.24 152.07 1135.53 150.744 1136.1 149.578C1136.68 148.402 1137.49 147.5 1138.54 146.871C1139.6 146.233 1140.8 145.914 1142.15 145.914C1144.17 145.914 1145.76 146.552 1146.92 147.828C1148.09 149.104 1148.67 150.913 1148.67 153.255V154.869H1139.25C1139.38 155.835 1139.76 156.61 1140.4 157.193C1141.04 157.776 1141.86 158.068 1142.85 158.068C1144.37 158.068 1145.56 157.516 1146.41 156.414L1148.35 158.587C1147.76 159.426 1146.96 160.082 1145.95 160.556C1144.94 161.021 1143.82 161.253 1142.59 161.253ZM1142.13 149.113C1141.35 149.113 1140.71 149.377 1140.22 149.906C1139.74 150.434 1139.43 151.191 1139.29 152.175H1144.79V151.861C1144.77 150.986 1144.53 150.311 1144.08 149.837C1143.62 149.354 1142.97 149.113 1142.13 149.113ZM1157.08 158.068C1157.81 158.068 1158.4 157.867 1158.85 157.466C1159.31 157.065 1159.55 156.532 1159.57 155.867H1163.27C1163.26 156.869 1162.99 157.79 1162.45 158.628C1161.91 159.458 1161.17 160.105 1160.24 160.57C1159.31 161.026 1158.28 161.253 1157.15 161.253C1155.03 161.253 1153.36 160.583 1152.14 159.244C1150.92 157.895 1150.31 156.035 1150.31 153.666V153.406C1150.31 151.127 1150.92 149.309 1152.13 147.951C1153.34 146.593 1155 145.914 1157.12 145.914C1158.97 145.914 1160.45 146.442 1161.56 147.5C1162.68 148.548 1163.25 149.947 1163.27 151.697H1159.57C1159.55 150.931 1159.31 150.311 1158.85 149.837C1158.4 149.354 1157.8 149.113 1157.05 149.113C1156.13 149.113 1155.43 149.45 1154.96 150.125C1154.49 150.79 1154.26 151.875 1154.26 153.378V153.789C1154.26 155.311 1154.49 156.404 1154.96 157.07C1155.42 157.735 1156.13 158.068 1157.08 158.068ZM1169.38 147.8C1170.43 146.542 1171.75 145.914 1173.33 145.914C1176.54 145.914 1178.17 147.778 1178.21 151.505V160.98H1174.26V151.615C1174.26 150.767 1174.08 150.143 1173.72 149.742C1173.35 149.332 1172.75 149.126 1171.9 149.126C1170.74 149.126 1169.9 149.573 1169.38 150.466V160.98H1165.43V139.98H1169.38V147.8ZM1184.83 146.187L1184.95 147.896C1186.01 146.574 1187.43 145.914 1189.21 145.914C1190.77 145.914 1191.94 146.374 1192.71 147.294C1193.47 148.215 1193.86 149.591 1193.88 151.423V160.98H1189.93V151.519C1189.93 150.681 1189.75 150.074 1189.38 149.701C1189.02 149.318 1188.41 149.126 1187.57 149.126C1186.45 149.126 1185.62 149.6 1185.06 150.548V160.98H1181.11V146.187H1184.83ZM1196.27 153.447C1196.27 151.979 1196.56 150.671 1197.12 149.523C1197.69 148.375 1198.5 147.486 1199.56 146.857C1200.62 146.228 1201.86 145.914 1203.26 145.914C1205.26 145.914 1206.88 146.524 1208.14 147.746C1209.41 148.967 1210.12 150.626 1210.26 152.722L1210.29 153.734C1210.29 156.003 1209.65 157.826 1208.39 159.203C1207.12 160.57 1205.42 161.253 1203.29 161.253C1201.16 161.253 1199.45 160.57 1198.18 159.203C1196.91 157.835 1196.27 155.976 1196.27 153.625V153.447ZM1200.23 153.734C1200.23 155.138 1200.49 156.213 1201.02 156.96C1201.55 157.699 1202.3 158.068 1203.29 158.068C1204.25 158.068 1204.99 157.703 1205.53 156.974C1206.07 156.236 1206.34 155.06 1206.34 153.447C1206.34 152.07 1206.07 151.004 1205.53 150.248C1204.99 149.491 1204.24 149.113 1203.26 149.113C1202.29 149.113 1201.55 149.491 1201.02 150.248C1200.49 150.995 1200.23 152.157 1200.23 153.734ZM1216.89 160.98H1212.93V139.98H1216.89V160.98ZM1219.54 153.447C1219.54 151.979 1219.83 150.671 1220.39 149.523C1220.96 148.375 1221.77 147.486 1222.83 146.857C1223.89 146.228 1225.13 145.914 1226.53 145.914C1228.53 145.914 1230.15 146.524 1231.41 147.746C1232.68 148.967 1233.38 150.626 1233.53 152.722L1233.56 153.734C1233.56 156.003 1232.92 157.826 1231.66 159.203C1230.39 160.57 1228.69 161.253 1226.56 161.253C1224.43 161.253 1222.72 160.57 1221.44 159.203C1220.18 157.835 1219.54 155.976 1219.54 153.625V153.447ZM1223.5 153.734C1223.5 155.138 1223.76 156.213 1224.29 156.96C1224.82 157.699 1225.57 158.068 1226.56 158.068C1227.51 158.068 1228.26 157.703 1228.8 156.974C1229.34 156.236 1229.61 155.06 1229.61 153.447C1229.61 152.07 1229.34 151.004 1228.8 150.248C1228.26 149.491 1227.51 149.113 1226.53 149.113C1225.56 149.113 1224.82 149.491 1224.29 150.248C1223.76 150.995 1223.5 152.157 1223.5 153.734ZM1235.42 153.474C1235.42 151.205 1235.96 149.377 1237.03 147.992C1238.12 146.606 1239.57 145.914 1241.41 145.914C1243.03 145.914 1244.29 146.47 1245.19 147.582L1245.36 146.187H1248.94V160.488C1248.94 161.782 1248.64 162.908 1248.05 163.865C1247.47 164.822 1246.64 165.551 1245.58 166.052C1244.51 166.554 1243.26 166.804 1241.83 166.804C1240.74 166.804 1239.69 166.585 1238.66 166.148C1237.63 165.72 1236.85 165.164 1236.32 164.48L1238.07 162.074C1239.05 163.177 1240.25 163.728 1241.65 163.728C1242.7 163.728 1243.52 163.445 1244.1 162.88C1244.68 162.324 1244.97 161.531 1244.97 160.501V159.708C1244.06 160.738 1242.86 161.253 1241.38 161.253C1239.6 161.253 1238.16 160.561 1237.06 159.175C1235.96 157.781 1235.42 155.935 1235.42 153.638V153.474ZM1239.37 153.761C1239.37 155.101 1239.64 156.154 1240.18 156.919C1240.71 157.676 1241.45 158.054 1242.39 158.054C1243.59 158.054 1244.45 157.603 1244.97 156.701V150.48C1244.45 149.578 1243.59 149.126 1242.42 149.126C1241.47 149.126 1240.72 149.514 1240.18 150.289C1239.64 151.063 1239.37 152.221 1239.37 153.761ZM1257.51 155.388L1260.25 146.187H1264.48L1258.54 163.277L1258.21 164.056C1257.32 165.988 1255.87 166.955 1253.83 166.955C1253.26 166.955 1252.68 166.868 1252.08 166.695V163.701L1252.68 163.714C1253.43 163.714 1253.99 163.6 1254.35 163.373C1254.73 163.145 1255.02 162.766 1255.23 162.238L1255.69 161.021L1250.51 146.187H1254.76L1257.51 155.388Z" fill="white"/>
<path d="M956.137 230.752C952.459 227.816 951.679 223.425 953.682 219.595L953.785 219.403C955.744 215.585 960.213 212.962 965.383 212.962H965.776C968.909 212.962 971.104 211.21 971.104 209.042C971.104 206.874 968.909 205.122 966.194 205.122H965.359C960.188 205.122 955.744 202.499 953.785 198.677L953.682 198.485C951.679 194.655 952.459 190.264 956.137 187.328L956.722 186.862C957.177 186.498 957.539 186.066 957.786 185.59C958.033 185.115 958.16 184.605 958.16 184.09C958.16 183.575 958.033 183.066 957.786 182.59C957.539 182.115 957.177 181.683 956.722 181.319C956.266 180.955 955.724 180.666 955.129 180.469C954.533 180.272 953.895 180.171 953.25 180.171C952.605 180.171 951.967 180.272 951.371 180.469C950.775 180.666 950.234 180.955 949.778 181.319L949.194 181.785C945.516 184.721 940.016 185.345 935.219 183.745L934.978 183.663C930.196 182.103 926.91 178.535 926.91 174.407V174.09C926.91 171.593 924.716 169.84 922 169.84C919.285 169.84 917.09 171.593 917.09 173.76V173.902C917.09 178.198 913.849 182.071 908.875 183.714L908.845 183.726C906.413 184.529 903.738 184.739 901.157 184.329C898.576 183.918 896.205 182.906 894.345 181.42L894.222 181.322L881.278 170.989L874.335 176.532L962.722 247.095L969.665 241.552L956.722 231.218L956.137 230.752ZM922 201.202C922 199.651 922.576 198.135 923.655 196.846C924.734 195.556 926.268 194.552 928.063 193.958C929.857 193.365 931.832 193.209 933.737 193.512C935.642 193.814 937.392 194.561 938.765 195.658C940.139 196.754 941.074 198.151 941.453 199.672C941.832 201.193 941.637 202.769 940.894 204.202C940.151 205.635 938.892 206.859 937.277 207.721C935.662 208.582 933.763 209.042 931.821 209.042C930.559 209.042 929.361 208.834 928.246 208.485L922.692 204.052C922.241 203.144 922.006 202.178 922 201.202V201.202ZM902.358 212.962C901.056 212.962 899.807 212.549 898.886 211.814C897.965 211.079 897.448 210.082 897.448 209.042C897.467 208.125 897.891 207.243 898.646 206.553L889.744 199.445C888.668 201.149 887.022 202.581 884.988 203.583C882.955 204.585 880.613 205.118 878.224 205.122H878.219C875.091 205.122 872.896 206.874 872.896 209.042C872.896 211.21 875.091 212.962 877.806 212.962H878.14C880.726 212.962 883.254 213.574 885.403 214.721C887.553 215.868 889.227 217.499 890.215 219.407L890.318 219.599C891.315 221.525 891.575 223.643 891.066 225.686C890.556 227.73 889.3 229.607 887.455 231.081L887.279 231.222C886.358 231.957 885.841 232.954 885.841 233.994C885.841 235.033 886.358 236.03 887.279 236.765C888.199 237.5 889.448 237.913 890.75 237.913C892.052 237.913 893.301 237.5 894.222 236.765L894.399 236.624C896.245 235.151 898.596 234.148 901.156 233.741C903.716 233.334 906.369 233.542 908.781 234.339L909.483 234.574C911.736 235.316 913.661 236.576 915.015 238.193C916.369 239.81 917.091 241.712 917.09 243.657V243.99C917.09 246.491 919.285 248.244 922 248.244C924.716 248.244 926.91 246.487 926.91 244.323V243.657C926.91 239.831 929.7 236.393 933.996 234.774L905.472 212.002C904.611 212.608 903.506 212.949 902.358 212.962Z" fill="white"/>
<path d="M863.109 284.065H855.918L854.551 288.166H850.189L857.6 268.26H861.4L868.852 288.166H864.49L863.109 284.065ZM857.025 280.742H862.002L859.5 273.291L857.025 280.742ZM869.836 280.633C869.836 278.309 870.351 276.472 871.381 275.123C872.42 273.774 873.842 273.1 875.646 273.1C877.232 273.1 878.495 273.706 879.434 274.918L879.693 273.373H883.166V293.854H879.201V286.895C878.29 287.925 877.096 288.44 875.619 288.44C873.86 288.44 872.456 287.756 871.408 286.389C870.36 285.022 869.836 283.103 869.836 280.633ZM873.787 280.92C873.787 282.333 874.033 283.408 874.525 284.147C875.027 284.885 875.729 285.254 876.631 285.254C877.843 285.254 878.7 284.771 879.201 283.805V277.694C878.709 276.764 877.861 276.299 876.658 276.299C875.747 276.299 875.04 276.668 874.539 277.406C874.038 278.145 873.787 279.316 873.787 280.92ZM895.143 286.662C894.167 287.847 892.818 288.44 891.096 288.44C889.51 288.44 888.298 287.984 887.459 287.073C886.63 286.161 886.206 284.826 886.188 283.067V273.373H890.139V282.93C890.139 284.47 890.841 285.24 892.244 285.24C893.584 285.24 894.505 284.776 895.006 283.846V273.373H898.971V288.166H895.252L895.143 286.662ZM910.523 288.166C910.341 287.811 910.209 287.369 910.127 286.84C909.17 287.906 907.926 288.44 906.395 288.44C904.945 288.44 903.742 288.02 902.785 287.182C901.837 286.343 901.363 285.286 901.363 284.01C901.363 282.442 901.942 281.239 903.1 280.401C904.266 279.562 905.948 279.138 908.145 279.129H909.963V278.281C909.963 277.598 909.785 277.051 909.43 276.641C909.083 276.231 908.532 276.026 907.775 276.026C907.11 276.026 906.586 276.185 906.203 276.504C905.829 276.823 905.643 277.261 905.643 277.817H901.691C901.691 276.96 901.956 276.167 902.484 275.438C903.013 274.709 903.76 274.139 904.727 273.729C905.693 273.309 906.777 273.1 907.98 273.1C909.803 273.1 911.248 273.56 912.314 274.481C913.39 275.392 913.928 276.677 913.928 278.336V284.748C913.937 286.152 914.133 287.214 914.516 287.934V288.166H910.523ZM907.256 285.418C907.839 285.418 908.377 285.291 908.869 285.035C909.361 284.771 909.726 284.42 909.963 283.983V281.44H908.486C906.508 281.44 905.456 282.123 905.328 283.49L905.314 283.723C905.314 284.215 905.488 284.621 905.834 284.94C906.18 285.259 906.654 285.418 907.256 285.418ZM924.646 281.235H916.949V278.049H924.646V281.235ZM941.148 280.906C941.148 283.276 940.643 285.127 939.631 286.457C938.619 287.779 937.206 288.44 935.393 288.44C933.788 288.44 932.508 287.824 931.551 286.594L931.373 288.166H927.818V267.166H931.77V274.699C932.681 273.633 933.88 273.1 935.365 273.1C937.17 273.1 938.583 273.765 939.604 275.096C940.633 276.418 941.148 278.281 941.148 280.688V280.906ZM937.197 280.619C937.197 279.125 936.96 278.035 936.486 277.352C936.012 276.659 935.306 276.313 934.367 276.313C933.109 276.313 932.244 276.828 931.77 277.858V283.696C932.253 284.735 933.128 285.254 934.395 285.254C935.671 285.254 936.509 284.625 936.91 283.367C937.102 282.766 937.197 281.85 937.197 280.619ZM947.766 288.166H943.801V267.166H947.766V288.166ZM950.418 280.633C950.418 279.166 950.701 277.858 951.266 276.709C951.831 275.561 952.642 274.672 953.699 274.043C954.766 273.414 956.001 273.1 957.404 273.1C959.4 273.1 961.027 273.711 962.285 274.932C963.552 276.153 964.258 277.812 964.404 279.908L964.432 280.92C964.432 283.19 963.798 285.013 962.531 286.389C961.264 287.756 959.564 288.44 957.432 288.44C955.299 288.44 953.594 287.756 952.318 286.389C951.051 285.022 950.418 283.162 950.418 280.811V280.633ZM954.369 280.92C954.369 282.324 954.633 283.399 955.162 284.147C955.691 284.885 956.447 285.254 957.432 285.254C958.389 285.254 959.136 284.89 959.674 284.16C960.212 283.422 960.48 282.246 960.48 280.633C960.48 279.257 960.212 278.19 959.674 277.434C959.136 276.677 958.38 276.299 957.404 276.299C956.438 276.299 955.691 276.677 955.162 277.434C954.633 278.181 954.369 279.343 954.369 280.92ZM973.018 285.254C973.747 285.254 974.339 285.054 974.795 284.653C975.251 284.252 975.488 283.718 975.506 283.053H979.211C979.202 284.056 978.928 284.976 978.391 285.815C977.853 286.644 977.115 287.291 976.176 287.756C975.246 288.212 974.216 288.44 973.086 288.44C970.971 288.44 969.303 287.77 968.082 286.43C966.861 285.081 966.25 283.222 966.25 280.852V280.592C966.25 278.313 966.856 276.495 968.068 275.137C969.281 273.779 970.944 273.1 973.059 273.1C974.909 273.1 976.39 273.628 977.502 274.686C978.623 275.734 979.193 277.133 979.211 278.883H975.506C975.488 278.117 975.251 277.498 974.795 277.024C974.339 276.541 973.738 276.299 972.99 276.299C972.07 276.299 971.372 276.636 970.898 277.311C970.434 277.976 970.201 279.061 970.201 280.565V280.975C970.201 282.497 970.434 283.591 970.898 284.256C971.363 284.921 972.07 285.254 973.018 285.254ZM986.84 282.233L985.418 283.655V288.166H981.467V267.166H985.418V278.801L986.184 277.817L989.971 273.373H994.715L989.369 279.539L995.18 288.166H990.641L986.84 282.233ZM865.576 304.582H859.479V321.166H855.377V304.582H849.361V301.26H865.576V304.582ZM873.246 321.44C871.077 321.44 869.309 320.774 867.941 319.444C866.583 318.113 865.904 316.34 865.904 314.125V313.742C865.904 312.257 866.191 310.931 866.766 309.764C867.34 308.588 868.151 307.686 869.199 307.057C870.257 306.419 871.46 306.1 872.809 306.1C874.832 306.1 876.423 306.738 877.58 308.014C878.747 309.29 879.33 311.099 879.33 313.442V315.055H869.91C870.038 316.021 870.421 316.796 871.059 317.379C871.706 317.962 872.521 318.254 873.506 318.254C875.028 318.254 876.217 317.703 877.074 316.6L879.016 318.774C878.423 319.612 877.621 320.268 876.609 320.742C875.598 321.207 874.477 321.44 873.246 321.44ZM872.795 309.299C872.011 309.299 871.373 309.563 870.881 310.092C870.398 310.621 870.088 311.377 869.951 312.362H875.447V312.047C875.429 311.172 875.192 310.498 874.736 310.024C874.281 309.541 873.633 309.299 872.795 309.299ZM887.738 318.254C888.467 318.254 889.06 318.054 889.516 317.653C889.971 317.252 890.208 316.718 890.227 316.053H893.932C893.923 317.056 893.649 317.976 893.111 318.815C892.574 319.644 891.835 320.291 890.896 320.756C889.967 321.212 888.937 321.44 887.807 321.44C885.692 321.44 884.024 320.77 882.803 319.43C881.581 318.081 880.971 316.222 880.971 313.852V313.592C880.971 311.313 881.577 309.495 882.789 308.137C884.001 306.779 885.665 306.1 887.779 306.1C889.63 306.1 891.111 306.628 892.223 307.686C893.344 308.734 893.913 310.133 893.932 311.883H890.227C890.208 311.117 889.971 310.498 889.516 310.024C889.06 309.541 888.458 309.299 887.711 309.299C886.79 309.299 886.093 309.636 885.619 310.311C885.154 310.976 884.922 312.061 884.922 313.565V313.975C884.922 315.497 885.154 316.591 885.619 317.256C886.084 317.921 886.79 318.254 887.738 318.254ZM900.043 307.987C901.091 306.729 902.408 306.1 903.994 306.1C907.202 306.1 908.829 307.964 908.875 311.692V321.166H904.924V311.801C904.924 310.953 904.742 310.329 904.377 309.928C904.012 309.518 903.406 309.313 902.559 309.313C901.401 309.313 900.563 309.759 900.043 310.653V321.166H896.092V300.166H900.043V307.987ZM915.492 306.373L915.615 308.082C916.673 306.761 918.09 306.1 919.867 306.1C921.435 306.1 922.602 306.56 923.367 307.481C924.133 308.401 924.525 309.778 924.543 311.61V321.166H920.592V311.705C920.592 310.867 920.41 310.261 920.045 309.887C919.68 309.504 919.074 309.313 918.227 309.313C917.115 309.313 916.281 309.787 915.725 310.735V321.166H911.773V306.373H915.492ZM926.936 313.633C926.936 312.166 927.218 310.858 927.783 309.709C928.348 308.561 929.16 307.672 930.217 307.043C931.283 306.414 932.518 306.1 933.922 306.1C935.918 306.1 937.545 306.711 938.803 307.932C940.07 309.153 940.776 310.812 940.922 312.908L940.949 313.92C940.949 316.19 940.316 318.013 939.049 319.389C937.782 320.756 936.082 321.44 933.949 321.44C931.816 321.44 930.112 320.756 928.836 319.389C927.569 318.022 926.936 316.162 926.936 313.811V313.633ZM930.887 313.92C930.887 315.324 931.151 316.399 931.68 317.147C932.208 317.885 932.965 318.254 933.949 318.254C934.906 318.254 935.654 317.89 936.191 317.16C936.729 316.422 936.998 315.246 936.998 313.633C936.998 312.257 936.729 311.19 936.191 310.434C935.654 309.677 934.897 309.299 933.922 309.299C932.956 309.299 932.208 309.677 931.68 310.434C931.151 311.181 930.887 312.343 930.887 313.92ZM947.553 321.166H943.588V300.166H947.553V321.166ZM950.205 313.633C950.205 312.166 950.488 310.858 951.053 309.709C951.618 308.561 952.429 307.672 953.486 307.043C954.553 306.414 955.788 306.1 957.191 306.1C959.188 306.1 960.814 306.711 962.072 307.932C963.339 309.153 964.046 310.812 964.191 312.908L964.219 313.92C964.219 316.19 963.585 318.013 962.318 319.389C961.051 320.756 959.352 321.44 957.219 321.44C955.086 321.44 953.382 320.756 952.105 319.389C950.839 318.022 950.205 316.162 950.205 313.811V313.633ZM954.156 313.92C954.156 315.324 954.421 316.399 954.949 317.147C955.478 317.885 956.234 318.254 957.219 318.254C958.176 318.254 958.923 317.89 959.461 317.16C959.999 316.422 960.268 315.246 960.268 313.633C960.268 312.257 959.999 311.19 959.461 310.434C958.923 309.677 958.167 309.299 957.191 309.299C956.225 309.299 955.478 309.677 954.949 310.434C954.421 311.181 954.156 312.343 954.156 313.92ZM966.078 313.66C966.078 311.391 966.616 309.563 967.691 308.178C968.776 306.793 970.234 306.1 972.066 306.1C973.689 306.1 974.951 306.656 975.854 307.768L976.018 306.373H979.6V320.674C979.6 321.968 979.303 323.094 978.711 324.051C978.128 325.008 977.303 325.737 976.236 326.239C975.17 326.74 973.921 326.99 972.49 326.99C971.406 326.99 970.348 326.772 969.318 326.334C968.288 325.906 967.509 325.35 966.98 324.666L968.73 322.26C969.715 323.363 970.909 323.914 972.313 323.914C973.361 323.914 974.176 323.632 974.76 323.067C975.343 322.511 975.635 321.718 975.635 320.688V319.895C974.723 320.925 973.525 321.44 972.039 321.44C970.262 321.44 968.822 320.747 967.719 319.362C966.625 317.967 966.078 316.121 966.078 313.824V313.66ZM970.029 313.948C970.029 315.287 970.298 316.34 970.836 317.106C971.374 317.862 972.112 318.24 973.051 318.24C974.254 318.24 975.115 317.789 975.635 316.887V310.666C975.106 309.764 974.254 309.313 973.078 309.313C972.13 309.313 971.383 309.7 970.836 310.475C970.298 311.25 970.029 312.407 970.029 313.948ZM988.172 315.574L990.906 306.373H995.145L989.197 323.463L988.869 324.242C987.985 326.175 986.527 327.141 984.494 327.141C983.92 327.141 983.337 327.054 982.744 326.881V323.887L983.346 323.901C984.093 323.901 984.649 323.787 985.014 323.559C985.387 323.331 985.679 322.953 985.889 322.424L986.354 321.207L981.172 306.373H985.424L988.172 315.574Z" fill="white"/>
<defs>
<clipPath id="clip0">
<rect width="105.932" height="95.3828" fill="white" transform="translate(590.842 0.918945)"/>
</clipPath>
</defs>
</svg>
