<svg width="137" height="62" viewBox="0 0 137 62" fill="none" xmlns="http://www.w3.org/2000/svg">
<path d="M46.3151 38.2212C47.1585 38.2019 47.96 37.8922 48.5488 37.3581C49.1376 36.824 49.4671 36.1076 49.4671 35.3618C49.4671 34.616 49.1376 33.8997 48.5488 33.3655C47.96 32.8314 47.1585 32.5217 46.3151 32.5024C45.4718 32.5217 44.6703 32.8314 44.0815 33.3655C43.4927 33.8997 43.1632 34.616 43.1632 35.3618C43.1632 36.1076 43.4927 36.824 44.0815 37.3581C44.6703 37.8922 45.4718 38.2019 46.3151 38.2212Z" fill="white"/>
<path d="M60.7103 29.8327C62.1022 23.1304 59.8025 3.91251 56.7051 2.87837C51.792 1.23613 43.3697 9.04985 38.8653 13.7583C37.3851 13.3885 35.922 13.1836 34.5011 13.1836C33.0801 13.1836 31.616 13.3885 30.1357 13.7583C25.6292 9.04985 17.208 1.23613 12.2939 2.87837C9.19748 3.91155 6.89677 23.1304 8.2897 29.8337C4.55939 34.7737 2.15625 39.9444 2.15625 44.0114C22.1501 44.0114 21.2488 59.8428 34.5 59.8428C47.7512 59.8428 46.8478 44.0114 66.8438 44.0114C66.8438 39.9444 64.4395 34.7737 60.7103 29.8327ZM26.8496 31.2748C29.4447 34.7928 26.1079 40.2399 26.1079 40.2399C14.1137 41.3122 12.0243 30.4408 12.0243 30.4408C18.1448 28.7138 23.8169 27.1649 26.8496 31.2748ZM12.8955 6.17427C17.76 9.95151 19.8105 14.3225 20.5146 18.2303C19.8817 18.6516 19.2542 19.0929 18.6343 19.5533C17.6082 17.2832 16.0037 15.2528 13.9455 13.6201C13.9455 13.6201 14.5008 16.448 14.3994 19.8964C13.6501 19.1463 12.6788 18.5401 11.413 18.3428C11.413 18.3428 12.2788 21.9561 11.2556 26.2585C10.4578 27.1354 9.70205 28.0323 8.98402 28.9397C8.67567 21.5958 10.9203 7.66686 12.8955 6.17427ZM2.80097 43.3585C13.4345 38.0468 20.9275 39.8015 25.9548 43.3052C25.4098 44.3202 24.9448 45.3673 24.5629 46.439C24.0584 47.9002 23.7112 49.4766 23.7533 51.0693C16.4145 42.7171 2.80097 43.3585 2.80097 43.3585ZM32.5842 55.5995C31.933 56.221 30.9346 56.5546 29.9147 56.5374C28.8927 56.5279 27.8534 56.1847 27.0038 55.5757C26.1488 54.9685 25.4901 54.0964 25.0901 53.1023C24.2815 51.0922 24.4691 48.7475 25.0502 46.5782C25.3439 45.5163 25.7181 44.4732 26.1704 43.4558C28.0129 44.7768 29.518 46.3237 30.7125 47.8363C29.7951 48.0079 28.9563 48.2719 28.4916 48.6865C27.6356 49.45 28.2965 51.3438 30.581 52.9794C31.56 53.6809 32.5098 54.0507 33.3647 54.2184C33.2332 54.7446 32.9863 55.2192 32.5842 55.5995ZM56.1045 6.17427C58.0775 7.66591 60.3222 21.5949 60.0149 28.9397C59.2917 28.0238 58.5341 27.1296 57.7433 26.2585C56.7202 21.9571 57.5859 18.3438 57.5859 18.3438C56.3202 18.5411 55.3499 19.1473 54.5995 19.8974C54.4981 16.449 55.0545 13.621 55.0545 13.621C52.9964 15.2541 51.3916 17.2843 50.3646 19.5542C49.7514 19.0992 49.1252 18.6581 48.4865 18.2313C49.1895 14.3225 51.24 9.95151 56.1045 6.17427ZM42.1504 31.2748C45.1831 27.164 50.8552 28.7128 56.9746 30.4408C56.9746 30.4408 54.8852 41.3122 42.891 40.2399C42.891 40.2409 39.5553 34.7938 42.1504 31.2748ZM43.9088 53.1033C43.511 54.0974 42.8501 54.9695 41.9951 55.5766C41.1466 56.1857 40.1084 56.5288 39.0853 56.5383C38.0664 56.5555 37.0659 56.2219 36.4169 55.6005C36.0148 55.2211 35.7679 54.7465 35.6353 54.2194C36.4902 54.0516 37.4379 53.6828 38.419 52.9803C40.6992 51.3448 41.3644 49.4509 40.5084 48.6875C40.0405 48.2729 39.2028 48.0088 38.2864 47.8373C39.482 46.3247 40.9882 44.7777 42.8285 43.4567C43.277 44.4756 43.6619 45.5155 43.9487 46.5791C44.5298 48.7475 44.7195 51.0922 43.9088 53.1033ZM45.2457 51.0703C45.2877 49.4766 44.9406 47.9011 44.4371 46.44C44.0552 45.3683 43.5902 44.3212 43.0452 43.3061C48.0714 39.8015 55.5655 38.0468 66.2001 43.3595C66.199 43.3585 52.5834 42.7171 45.2457 51.0703Z" fill="white"/>
<path d="M22.6838 38.2212C23.5416 38.2212 24.3643 37.9199 24.9708 37.3837C25.5774 36.8475 25.9182 36.1202 25.9182 35.3618C25.9182 34.6035 25.5774 33.8762 24.9708 33.3399C24.3643 32.8037 23.5416 32.5024 22.6838 32.5024C21.826 32.5024 21.0033 32.8037 20.3967 33.3399C19.7902 33.8762 19.4494 34.6035 19.4494 35.3618C19.4494 36.1202 19.7902 36.8475 20.3967 37.3837C21.0033 37.9199 21.826 38.2212 22.6838 38.2212Z" fill="white"/>
<path d="M85.2559 20.045C83.8086 19.629 82.7539 19.1192 82.0918 18.5157C81.4355 17.9063 81.1074 17.1563 81.1074 16.2657C81.1074 15.2579 81.5088 14.4258 82.3115 13.7696C83.1201 13.1075 84.1689 12.7764 85.458 12.7764C86.3369 12.7764 87.1191 12.9464 87.8047 13.2862C88.4961 13.626 89.0293 14.0948 89.4043 14.6924C89.7852 15.2901 89.9756 15.9434 89.9756 16.6524H88.2793C88.2793 15.879 88.0332 15.2725 87.541 14.8331C87.0488 14.3878 86.3545 14.1651 85.458 14.1651C84.626 14.1651 83.9756 14.3497 83.5068 14.7188C83.0439 15.0821 82.8125 15.5889 82.8125 16.2393C82.8125 16.7608 83.0322 17.2032 83.4717 17.5665C83.917 17.9239 84.6699 18.252 85.7305 18.5508C86.7969 18.8497 87.6289 19.1807 88.2266 19.544C88.8301 19.9014 89.2754 20.3204 89.5625 20.8008C89.8555 21.2813 90.002 21.8467 90.002 22.4971C90.002 23.5342 89.5977 24.3663 88.7891 24.9932C87.9805 25.6143 86.8994 25.9249 85.5459 25.9249C84.667 25.9249 83.8467 25.7579 83.085 25.4239C82.3232 25.084 81.7344 24.6212 81.3184 24.0352C80.9082 23.4493 80.7031 22.7842 80.7031 22.0401H82.3994C82.3994 22.8135 82.6836 23.4258 83.252 23.877C83.8262 24.3223 84.5908 24.545 85.5459 24.545C86.4365 24.545 87.1191 24.3633 87.5938 24.0001C88.0684 23.6368 88.3057 23.1417 88.3057 22.5147C88.3057 21.8878 88.0859 21.4044 87.6465 21.0645C87.207 20.7188 86.4102 20.379 85.2559 20.045ZM93.9834 25.7491H92.2959V12.9522H93.9834V25.7491ZM98.7734 24.3692H104.838V25.7491H97.0771V12.9522H98.7734V24.3692ZM109.452 23.5079L113.108 12.9522H114.954L110.208 25.7491H108.714L103.977 12.9522H105.813L109.452 23.5079ZM123.91 19.834H118.364V24.3692H124.807V25.7491H116.677V12.9522H124.719V14.3409H118.364V18.4542H123.91V19.834ZM131.601 20.5723H128.595V25.7491H126.898V12.9522H131.135C132.576 12.9522 133.684 13.2803 134.457 13.9366C135.236 14.5928 135.626 15.5479 135.626 16.8018C135.626 17.5987 135.409 18.293 134.976 18.8848C134.548 19.4766 133.95 19.919 133.183 20.212L136.188 25.6436V25.7491H134.378L131.601 20.5723ZM128.595 19.1924H131.188C132.025 19.1924 132.69 18.9756 133.183 18.5421C133.681 18.1085 133.93 17.5284 133.93 16.8018C133.93 16.0108 133.692 15.4044 133.218 14.9825C132.749 14.5606 132.069 14.3467 131.179 14.3409H128.595V19.1924ZM88.543 41.0977H83.1729V46.7491H81.4854V33.9522H89.4131V35.3409H83.1729V39.7178H88.543V41.0977ZM101.278 40.7637C101.278 42.0176 101.067 43.1133 100.646 44.0508C100.224 44.9825 99.626 45.6944 98.8525 46.1866C98.0791 46.6788 97.1768 46.9249 96.1455 46.9249C95.1377 46.9249 94.2441 46.6788 93.4648 46.1866C92.6855 45.6885 92.0791 44.9825 91.6455 44.0684C91.2178 43.1485 90.998 42.085 90.9863 40.878V39.9551C90.9863 38.7247 91.2002 37.6378 91.6279 36.6944C92.0557 35.751 92.6592 35.0303 93.4385 34.5323C94.2236 34.0284 95.1201 33.7764 96.1279 33.7764C97.1533 33.7764 98.0557 34.0255 98.835 34.5235C99.6201 35.0157 100.224 35.7335 100.646 36.6768C101.067 37.6143 101.278 38.7071 101.278 39.9551V40.7637ZM99.5996 39.9376C99.5996 38.42 99.2949 37.2569 98.6855 36.4483C98.0762 35.6339 97.2236 35.2266 96.1279 35.2266C95.0615 35.2266 94.2207 35.6339 93.6055 36.4483C92.9961 37.2569 92.6826 38.3819 92.665 39.8233V40.7637C92.665 42.2344 92.9727 43.3917 93.5879 44.2354C94.209 45.0733 95.0615 45.4922 96.1455 45.4922C97.2354 45.4922 98.0791 45.0967 98.6768 44.3057C99.2744 43.5089 99.582 42.3692 99.5996 40.8868V39.9376ZM107.791 38.8565L110.858 33.9522H112.845L108.802 40.2979L112.941 46.7491H110.938L107.791 41.7569L104.627 46.7491H102.632L106.78 40.2979L102.729 33.9522H104.706L107.791 38.8565Z" fill="white"/>
</svg>
